<?xml version="1.0" encoding="UTF-8"?>
<svg xmlns="http://www.w3.org/2000/svg" xmlns:xlink="http://www.w3.org/1999/xlink" width="392.369mm" height="181.694mm" viewBox="-642.182251 282.150635 392.368652 181.694031">
    <circle transform="matrix(-0.999998,-0.002179,0.002179,-0.999998,-426.484009,361.057007)" style="stroke:#000000;stroke-width:0.05mm;fill:none" r="10" cx="0" cy="0"/>
    <circle transform="matrix(-0.999998,-0.002179,0.002179,-0.999998,-545.030029,317.158997)" style="stroke:#000000;stroke-width:0.05mm;fill:none" r="10" cx="0" cy="0"/>
    <circle transform="matrix(-0.999998,-0.002179,0.002179,-0.999998,-624.109985,361.399994)" style="stroke:#000000;stroke-width:0.05mm;fill:none" r="10" cx="0" cy="0"/>
    <circle transform="matrix(-0.999998,-0.002179,0.002179,-0.999998,-347.403992,316.81601)" style="stroke:#000000;stroke-width:0.05mm;fill:none" r="10" cx="0" cy="0"/>
    <circle transform="matrix(-0.999998,-0.002179,0.002179,-0.999998,-616.241028,424.677002)" style="stroke:#000000;stroke-width:0.05mm;fill:none" r="2" cx="0" cy="0"/>
    <circle transform="matrix(-0.999998,-0.002179,0.002179,-0.999998,-616.275024,440.677002)" style="stroke:#000000;stroke-width:0.05mm;fill:none" r="2" cx="0" cy="0"/>
    <circle transform="matrix(-0.999998,-0.002179,0.002179,-0.999998,-616.241028,424.677002)" style="stroke:#000000;stroke-width:0.05mm;fill:none" r="2.85228" cx="0" cy="0"/>
    <circle transform="matrix(-0.999998,-0.002179,0.002179,-0.999998,-616.275024,440.677002)" style="stroke:#000000;stroke-width:0.05mm;fill:none" r="2.852234" cx="0" cy="0"/>
    <path transform="matrix(-0.999998,-0.002179,0.002179,-0.999998,-243.020004,1114.189941)" style="stroke:#000000;stroke-width:0.05mm;fill:none" d="M152.401993,806.630981L135.792999,786.836975L135.792999,785.836975L155.792999,785.836975L155.792999,786.836975L137.098999,786.836975L153.167999,805.987976C155.769714,809.088074,156.154358,813.484619,154.130661,816.989807C152.106979,820.494934,148.107101,822.360107,144.121201,821.657288C140.1353,820.954468,137.014572,817.83374,136.311752,813.847839L137.296997,813.674011C137.926376,817.246094,140.722961,820.042664,144.294846,820.672485C147.866745,821.302307,151.451141,819.630859,153.264648,816.489807C155.07814,813.348694,154.733444,809.408813,152.402054,806.630371"/>
    <path transform="matrix(0.999998,-0.002179,-0.002179,-0.999998,-531.106995,1114.189941)" style="stroke:#ff0000;stroke-width:0.05mm;fill:none" d="M130.792999,830.637024L160.792999,830.637024L160.792999,827.836975L163.792999,827.836975L163.792999,826.336975L162.292999,824.836975L162.292999,780.836975L163.792999,779.336975L163.792999,777.836975L162.292999,777.836975L162.292999,775.036987L155.292999,775.036987L155.292999,772.137024L149.792999,772.137024L149.792999,775.036987L129.292999,775.036987L129.292999,777.836975L127.792999,777.836975L127.792999,779.336975L129.292999,780.836975L129.292999,824.836975L127.792999,826.336975L127.792999,827.836975L130.792999,827.836975L130.792999,830.637024z"/>
    <path transform="matrix(-0.999998,-0.002179,0.002179,-0.999998,-243.020004,1114.189941)" style="stroke:#ff0000;stroke-width:0.05mm;fill:none" d="M188.988998,772.190002L188.988998,775.090027L168.488998,775.090027L168.488998,777.890015L166.988998,777.890015L166.988998,779.390015L168.488998,780.890015L168.488998,824.890015L166.988998,826.390015L166.988998,827.890015L169.988998,827.890015L169.988998,830.690002L199.988998,830.690002L199.988998,827.890015L202.988998,827.890015L202.988998,826.390015L201.488998,824.890015L201.488998,780.890015L202.988998,779.390015L202.988998,777.890015L201.488998,777.890015L201.488998,775.090027L194.488998,775.090027L194.488998,772.190002L188.988998,772.190002z"/>
    <path transform="matrix(-0.999998,-0.002179,0.002179,-0.999998,-243.020004,1114.189941)" style="stroke:#000000;stroke-width:0.05mm;fill:none" d="M177.001617,816.597168C178.343689,820.284485,182.035431,822.573914,185.935013,822.137207C189.83461,821.7005,192.928436,818.651123,193.4216,814.75824C193.914764,810.865417,191.679047,807.14093,188.011551,805.745544C192.743347,804.323242,195.843338,799.794434,195.456818,794.868591C195.070313,789.94281,191.30188,785.952942,186.406143,785.286072C181.510406,784.619202,176.812134,787.455811,175.122223,792.098816L176.061996,792.440979C177.71048,787.911438,182.489731,785.334473,187.179855,786.446106C191.86998,787.557678,194.984344,792.005432,194.424759,796.792908C193.865189,801.580322,189.809052,805.190002,184.988998,805.190002C184.570633,805.190002,184.152817,805.220886,183.738998,805.28241L183.738998,806.11499C184.153824,806.165039,184.571213,806.190002,184.988998,806.190002C188.794296,806.190002,191.996521,809.039734,192.438293,812.819336C192.880051,816.598877,190.421341,820.110291,186.718613,820.987854C183.015884,821.865417,179.242798,819.830994,177.941299,816.255127L177.001007,816.596985"/>
    <path transform="matrix(-0.999998,-0.002179,0.002179,-0.999998,-243.020004,1114.189941)" style="stroke:#000000;stroke-width:0.05mm;fill:none" d="M31.5949,759.588989L31.5949,737.76001L16.310499,737.76001L31.5949,759.588989z"/>
    <path transform="matrix(0.999998,-0.002179,-0.002179,-0.999998,-292.970001,1114.189941)" style="stroke:#ff0000;stroke-width:0.05mm;fill:none" d="M43.094898,715.76001L36.094898,715.76001L36.094898,712.859985L30.5949,712.859985L30.5949,715.76001L10.0949,715.76001L10.0949,718.559998L8.59488,718.559998L8.59488,720.059998L10.0949,721.559998L10.0949,765.559998L8.59488,767.059998L8.59488,768.559998L11.5949,768.559998L11.5949,771.359985L41.594898,771.359985L41.594898,768.559998L44.594898,768.559998L44.594898,767.059998L43.094898,765.559998L43.094898,721.559998L44.594898,720.059998L44.594898,718.559998L43.094898,718.559998L43.094898,715.76001z"/>
    <path transform="matrix(-0.999998,-0.002179,0.002179,-0.999998,-243.020004,1114.189941)" style="stroke:#000000;stroke-width:0.05mm;fill:none" d="M14.3895,736.76001L31.5949,736.76001L31.5949,726.76001L32.594898,726.76001L32.594898,736.76001L38.800301,736.76001L38.800301,737.76001L32.594898,737.76001L32.594898,762.76001L14.3895,736.76001z"/>
    <path transform="matrix(-0.999998,-0.002179,0.002179,-0.999998,-243.020004,1114.189941)" style="stroke:#ff0000;stroke-width:0.05mm;fill:none" d="M48.4259,718.494019L48.4259,719.994019L49.9259,721.494019L49.9259,765.494019L48.4259,766.994019L48.4259,768.494019L51.4259,768.494019L51.4259,771.294006L81.425903,771.294006L81.425903,768.494019L84.425903,768.494019L84.425903,766.994019L82.925903,765.494019L82.925903,721.494019L84.425903,719.994019L84.425903,718.494019L82.925903,718.494019L82.925903,715.69397L75.925903,715.69397L75.925903,712.794006L70.425903,712.794006L70.425903,715.69397L49.9259,715.69397L49.9259,718.494019L48.4259,718.494019z"/>
    <path transform="matrix(-0.999998,-0.002179,0.002179,-0.999998,-243.020004,1114.189941)" style="stroke:#000000;stroke-width:0.05mm;fill:none" d="M57.415199,730.874023L58.234383,731.448242C61.160728,727.268982,66.764038,725.96283,71.236763,728.417297C75.709488,730.871765,77.617317,736.299744,75.663849,741.012878C73.710388,745.726013,68.522064,748.212891,63.624401,746.78302L57.831001,745.093018L60.891602,762.450012L77.891602,762.450012L77.891602,761.450012L61.730701,761.450012L59.0952,746.502991L63.3442,747.742981C68.731682,749.315796,74.438835,746.580261,76.587646,741.395813C78.736458,736.211365,76.637848,730.24054,71.71785,727.540588C66.797852,724.840698,60.634212,726.277527,57.41523,730.874695"/>
    <path transform="matrix(0.999998,-0.002179,-0.002179,-0.999998,-449.751007,1114.189941)" style="stroke:#ff0000;stroke-width:0.05mm;fill:none" d="M86.984398,717.828003L86.984398,719.328003L88.484398,720.828003L88.484398,764.828003L86.984398,766.328003L86.984398,767.828003L89.984398,767.828003L89.984398,770.627991L119.984001,770.627991L119.984001,767.828003L122.984001,767.828003L122.984001,766.328003L121.484001,764.828003L121.484001,720.828003L122.984001,719.328003L122.984001,717.828003L121.484001,717.828003L121.484001,715.028015L100.984001,715.028015L100.984001,712.127991L95.484398,712.127991L95.484398,715.028015L88.484398,715.028015L88.484398,717.828003L86.984398,717.828003z"/>
    <path transform="matrix(-0.999998,-0.002179,0.002179,-0.999998,-243.020004,1114.189941)" style="stroke:#000000;stroke-width:0.05mm;fill:none" d="M96.0951,727.085999L96.984398,726.627991L114.984001,761.627991L94.984398,761.627991L94.984398,760.627991L113.346001,760.627991L96.0951,727.085999z"/>
    <path transform="matrix(-0.999998,-0.002179,0.002179,-0.999998,-243.020004,1114.189941)" style="stroke:#000000;stroke-width:0.05mm;fill:none" d="M135.210007,736.244019L135.21489,735.957031C135.357803,732.762634,137.193604,729.887024,140.030823,728.412292C144.000656,726.278381,148.911301,727.108154,151.959427,730.428101C155.10643,733.896423,154.925476,739.239929,151.551483,742.487854C147.650497,746.249878,141.445663,746.155701,137.660919,742.276733C136.098251,740.656006,135.220108,738.495361,135.210007,736.244019z"/>
    <path transform="matrix(-0.999998,-0.002179,0.002179,-0.999998,-243.020004,1114.189941)" style="stroke:#ff0000;stroke-width:0.05mm;fill:none" d="M161.210007,714.643982L140.710007,714.643982L140.710007,711.744019L135.210007,711.744019L135.210007,714.643982L128.210007,714.643982L128.210007,717.44397L126.709999,717.44397L126.709999,718.94397L128.210007,720.44397L128.210007,764.44397L126.709999,765.94397L126.709999,767.44397L129.710007,767.44397L129.710007,770.244019L159.710007,770.244019L159.710007,767.44397L162.710007,767.44397L162.710007,765.94397L161.210007,764.44397L161.210007,720.44397L162.710007,718.94397L162.710007,717.44397L161.210007,717.44397L161.210007,714.643982z"/>
    <path transform="matrix(-0.999998,-0.002179,0.002179,-0.999998,-386.088989,360.634003)" style="stroke:#000000;stroke-width:0.05mm;fill:none" d="M8.5,0C8.5,4.418272,4.694427,7.99999,0.000011,7.999996C-4.694405,8.000002,-8.499989,4.418292,-8.5,0.00002C-8.500012,-4.418251,-4.694448,-7.99998,-0.000032,-7.999996C4.694384,-8.000013,8.499976,-4.418312,8.5,-0.000041"/>
    <path transform="matrix(0.999998,0.002179,-0.002179,0.999998,-386.126007,377.634003)" style="stroke:#000000;stroke-width:0.05mm;fill:none" d="M10.5,0C10.5,5.522842,5.798996,9.999994,0.000013,10.000001C-5.79897,10.000008,-10.499986,5.522867,-10.5,0.000025C-10.500015,-5.522817,-5.799023,-9.99998,-0.00004,-10.000001C5.798944,-10.000022,10.49997,-5.522893,10.5,-0.000051"/>
    <path transform="matrix(-0.999998,-0.002179,0.002179,-0.999998,-243.020004,1114.189941)" style="stroke:#000000;stroke-width:0.05mm;fill:none" d="M152.210007,753.244019C152.163773,755.827087,150.69458,758.173096,148.390976,759.342651C145.2939,760.974487,141.492172,760.36438,139.061356,757.845276C137.451111,756.156799,136.84166,753.748779,137.454147,751.497375C138.160004,749.083923,140.071594,747.211792,142.498947,746.555359C145.303055,745.729492,148.333328,746.534058,150.358826,748.641724C151.530975,749.889526,152.191254,751.532166,152.210007,753.244019z"/>
    <path transform="matrix(0.999998,-0.002179,-0.002179,-0.999998,-609.992004,1114.189941)" style="stroke:#ff0000;stroke-width:0.05mm;fill:none" d="M201.604004,714.732971L181.104004,714.732971L181.104004,711.833008L175.604004,711.833008L175.604004,714.732971L168.604004,714.732971L168.604004,717.53302L167.104004,717.53302L167.104004,719.03302L168.604004,720.53302L168.604004,764.53302L167.104004,766.03302L167.104004,767.53302L170.104004,767.53302L170.104004,770.333008L200.104004,770.333008L200.104004,767.53302L203.104004,767.53302L203.104004,766.03302L201.604004,764.53302L201.604004,720.53302L203.104004,719.03302L203.104004,717.53302L201.604004,717.53302L201.604004,714.732971z"/>
    <path transform="matrix(-0.999998,-0.002179,0.002179,-0.999998,-243.020004,1114.189941)" style="stroke:#000000;stroke-width:0.05mm;fill:none" d="M191.074997,743.494995L179.298996,725.01001L180.141998,724.473022L194.380997,746.822998C197.400192,751.561401,196.36264,757.813538,191.97493,761.32312C187.587219,764.832642,181.259842,764.471436,177.300079,760.485291C173.340302,756.499207,173.021042,750.169556,176.559631,745.805237C180.098221,741.440918,186.357132,740.444824,191.075699,743.495056"/>
    <path transform="matrix(-0.999998,-0.002179,0.002179,-0.999998,-243.020004,1114.189941)" style="stroke:#000000;stroke-width:0.05mm;fill:none" d="M224.225998,821.289001C222.943527,821.268555,221.699463,820.846252,220.67041,820.080627C219.472809,819.193176,218.456024,818.085022,217.674179,816.815979C216.420471,814.772156,215.5177,812.532898,215.002823,810.191101C213.832291,805.104553,213.979431,799.803833,215.430023,794.789978C216.01767,792.727905,216.946472,790.778687,218.178238,789.023682C218.990768,787.854004,220.037857,786.866028,221.25325,786.123657C223.186951,784.956482,225.625443,785.02655,227.489975,786.301331C228.696396,787.118652,229.729218,788.166504,230.527847,789.385376C231.722305,791.206665,232.615479,793.208313,233.173157,795.313721C234.683411,800.891907,234.574707,806.783936,232.859329,812.30249C232.276001,814.177124,231.403381,815.949097,230.272812,817.554199C229.460114,818.723572,228.412979,819.711243,227.1978,820.453735C226.298935,820.991028,225.273163,821.279358,224.225998,821.289001z"/>
    <path transform="matrix(-0.999998,-0.002179,0.002179,-0.999998,-243.020004,1114.189941)" style="stroke:#ff0000;stroke-width:0.05mm;fill:none" d="M206.225998,778.289001L206.225998,779.789001L207.725998,781.289001L207.725998,825.289001L206.225998,826.789001L206.225998,828.289001L209.225998,828.289001L209.225998,831.088989L239.225998,831.088989L239.225998,828.289001L242.225998,828.289001L242.225998,826.789001L240.725998,825.289001L240.725998,781.289001L242.225998,779.789001L242.225998,778.289001L240.725998,778.289001L240.725998,775.489014L220.225998,775.489014L220.225998,772.588989L214.725998,772.588989L214.725998,775.489014L207.725998,775.489014L207.725998,778.289001L206.225998,778.289001z"/>
    <path transform="matrix(0.002179,-0.999998,0.999998,0.002179,-465.494995,310.415985)" style="stroke:#000000;stroke-width:0.05mm;fill:none" d="M19,0C19,6.075122,10.493423,10.999987,0.000024,10.999993C-10.493376,11.000001,-18.999973,6.07515,-19,0.000028C-19.000027,-6.075094,-10.493471,-10.999969,-0.000072,-10.999993C10.493328,-11.000016,18.999947,-6.075178,19,-0.000056"/>
    <path transform="matrix(-0.999998,-0.002179,0.002179,-0.999998,-243.020004,1114.189941)" style="stroke:#ff0000;stroke-width:0.05mm;fill:none" d="M268.790009,772.588989L268.790009,775.489014L248.289993,775.489014L248.289993,778.289001L246.789993,778.289001L246.789993,779.789001L248.289993,781.289001L248.289993,825.289001L246.789993,826.789001L246.789993,828.289001L249.789993,828.289001L249.789993,831.088989L279.790009,831.088989L279.790009,828.289001L282.790009,828.289001L282.790009,826.789001L281.290009,825.289001L281.290009,781.289001L282.790009,779.789001L282.790009,778.289001L281.290009,778.289001L281.290009,775.489014L274.290009,775.489014L274.290009,772.588989L268.790009,772.588989z"/>
    <path transform="matrix(-0.999998,-0.002179,0.002179,-0.999998,-243.020004,1114.189941)" style="stroke:#000000;stroke-width:0.05mm;fill:none" d="M264.290009,784.789001L265.290009,784.789001L265.290009,822.94397L257.862,818.655029L258.362,817.789001L264.290009,821.211975L264.290009,784.789001z"/>
    <path transform="matrix(-0.999998,-0.002179,0.002179,-0.999998,-243.020004,1114.189941)" style="stroke:#ff0000;stroke-width:0.05mm;fill:none" d="M320.246002,774.872986L299.746002,774.872986L299.746002,771.973022L294.246002,771.973022L294.246002,774.872986L287.246002,774.872986L287.246002,777.672974L285.746002,777.672974L285.746002,779.172974L287.246002,780.672974L287.246002,824.672974L285.746002,826.172974L285.746002,827.672974L288.746002,827.672974L288.746002,830.572998L318.746002,830.572998L318.746002,827.672974L321.746002,827.672974L321.746002,826.172974L320.246002,824.672974L320.246002,780.672974L321.746002,779.172974L321.746002,777.672974L320.246002,777.672974L320.246002,774.872986z"/>
    <path transform="matrix(-0.999998,-0.002179,0.002179,-0.999998,-243.020004,1114.189941)" style="stroke:#000000;stroke-width:0.05mm;fill:none" d="M297.774994,805.611023L309.550995,824.096008L308.707001,824.632996L294.468994,802.28302C291.449799,797.544556,292.487366,791.292419,296.875092,787.782837C301.262787,784.273315,307.590149,784.634521,311.549927,788.620667C315.509705,792.60675,315.828949,798.936401,312.290375,803.30072C308.751801,807.665039,302.492889,808.661133,297.774292,805.610901"/>
    <path transform="matrix(0.999998,-0.002179,-0.002179,-0.999998,-926.362,1114.189941)" style="stroke:#ff0000;stroke-width:0.05mm;fill:none" d="M325.419006,777.062988L325.419006,778.562988L326.919006,780.062988L326.919006,824.062988L325.419006,825.562988L325.419006,827.062988L328.419006,827.062988L328.419006,829.862976L358.419006,829.862976L358.419006,827.062988L361.419006,827.062988L361.419006,825.562988L359.919006,824.062988L359.919006,780.062988L361.419006,778.562988L361.419006,777.062988L359.919006,777.062988L359.919006,774.263L352.919006,774.263L352.919006,771.362976L347.419006,771.362976L347.419006,774.263L326.919006,774.263L326.919006,777.062988L325.419006,777.062988z"/>
    <path transform="matrix(-0.999998,-0.002179,0.002179,-0.999998,-243.020004,1114.189941)" style="stroke:#000000;stroke-width:0.05mm;fill:none" d="M334.922577,812.901184C335.552399,816.473083,338.348969,819.269653,341.920868,819.899475C345.492737,820.529297,349.077148,818.857849,350.890656,815.716797C352.704132,812.575684,352.359436,808.635803,350.028015,805.856995L333.419006,786.062988L333.419006,785.062988L353.419006,785.062988L353.419006,786.062988L334.723999,786.062988L350.794006,805.215027C353.395721,808.315063,353.780365,812.711609,351.756683,816.216797C349.732971,819.721924,345.733124,821.587097,341.747223,820.884277C337.761322,820.181458,334.640594,817.06073,333.937775,813.074829L334.921997,812.901001"/>
    <path transform="matrix(-0.999998,-0.002179,0.002179,-0.999998,-243.020004,1114.189941)" style="stroke:#ff0000;stroke-width:0.05mm;fill:none" d="M386.614014,771.416992L386.614014,774.317017L366.114014,774.317017L366.114014,777.117004L364.614014,777.117004L364.614014,778.617004L366.114014,780.117004L366.114014,824.117004L364.614014,825.617004L364.614014,827.117004L367.614014,827.117004L367.614014,829.916992L397.614014,829.916992L397.614014,827.117004L400.614014,827.117004L400.614014,825.617004L399.114014,824.117004L399.114014,780.117004L400.614014,778.617004L400.614014,777.117004L399.114014,777.117004L399.114014,774.317017L392.114014,774.317017L392.114014,771.416992L386.614014,771.416992z"/>
    <path transform="matrix(-0.999998,-0.002179,0.002179,-0.999998,-243.020004,1114.189941)" style="stroke:#000000;stroke-width:0.05mm;fill:none" d="M372.747253,791.325806C374.437134,786.6828,379.135437,783.846191,384.031158,784.513062C388.92688,785.179932,392.695313,789.1698,393.081848,794.095581C393.468353,799.021423,390.368378,803.550232,385.636566,804.972534C389.304077,806.36792,391.539764,810.092407,391.046631,813.985229C390.553467,817.878113,387.459625,820.92749,383.560028,821.364197C379.660431,821.800903,375.968689,819.511475,374.627014,815.823975L375.566315,815.482117C376.867798,819.057983,380.6409,821.092407,384.343628,820.214844C388.046356,819.33728,390.505066,815.825867,390.063293,812.046326C389.621521,808.266724,386.419312,805.416992,382.614014,805.416992C382.196228,805.416992,381.778839,805.392029,381.364014,805.342346L381.364014,804.508972C381.777832,804.447876,382.195648,804.416992,382.614014,804.416992C387.434052,804.416992,391.490204,800.807312,392.049774,796.019897C392.609344,791.232422,389.494995,786.784668,384.804871,785.673096C380.114746,784.561462,375.33548,787.138428,373.68692,791.667786L372.747986,791.325012"/>
    <path transform="matrix(-0.999998,-0.002179,0.002179,-0.999998,-243.020004,1114.189941)" style="stroke:#000000;stroke-width:0.05mm;fill:none" d="M229.220993,758.815002L229.220993,736.987L213.936005,736.987L229.220993,758.815002z"/>
    <path transform="matrix(0.999998,-0.002179,-0.002179,-0.999998,-688.223999,1114.189941)" style="stroke:#ff0000;stroke-width:0.05mm;fill:none" d="M206.220993,767.786987L206.220993,766.286987L207.720993,764.786987L207.720993,720.786987L206.220993,719.286987L206.220993,717.786987L207.720993,717.786987L207.720993,714.987L228.220993,714.987L228.220993,712.086975L233.720993,712.086975L233.720993,714.987L240.720993,714.987L240.720993,717.786987L242.220993,717.786987L242.220993,719.286987L240.720993,720.786987L240.720993,764.786987L242.220993,766.286987L242.220993,767.786987L239.220993,767.786987L239.220993,770.586975L209.220993,770.586975L209.220993,767.786987L206.220993,767.786987z"/>
    <path transform="matrix(-0.999998,-0.002179,0.002179,-0.999998,-243.020004,1114.189941)" style="stroke:#000000;stroke-width:0.05mm;fill:none" d="M230.220993,761.987L230.220993,736.987L236.425995,736.987L236.425995,735.987L230.220993,735.987L230.220993,725.987L229.220993,725.987L229.220993,735.987L212.014999,735.987L230.220993,761.987z"/>
    <path transform="matrix(-0.999998,-0.002179,0.002179,-0.999998,-243.020004,1114.189941)" style="stroke:#ff0000;stroke-width:0.05mm;fill:none" d="M246.052002,717.721008L246.052002,719.221008L247.552002,720.721008L247.552002,764.721008L246.052002,766.221008L246.052002,767.721008L249.052002,767.721008L249.052002,770.520996L279.052002,770.520996L279.052002,767.721008L282.052002,767.721008L282.052002,766.221008L280.552002,764.721008L280.552002,720.721008L282.052002,719.221008L282.052002,717.721008L280.552002,717.721008L280.552002,714.921021L273.552002,714.921021L273.552002,712.020996L268.052002,712.020996L268.052002,714.921021L247.552002,714.921021L247.552002,717.721008L246.052002,717.721008z"/>
    <path transform="matrix(-0.999998,-0.002179,0.002179,-0.999998,-243.020004,1114.189941)" style="stroke:#000000;stroke-width:0.05mm;fill:none" d="M255.860001,730.674988L255.041336,730.100647C258.260315,725.503479,264.42395,724.06665,269.343933,726.766541C274.263947,729.466492,276.362549,735.437317,274.213745,740.621765C272.064941,745.806213,266.357788,748.541748,260.970001,746.969971L256.721008,745.72998L259.355988,760.677002L275.516998,760.677002L275.516998,761.677002L258.516998,761.677002L255.457001,744.31897L261.25,746.01001C266.148163,747.438843,271.336487,744.951965,273.289948,740.238831C275.243408,735.525696,273.335571,730.097717,268.862854,727.64325C264.390137,725.188782,258.786835,726.494934,255.860474,730.674194"/>
    <path transform="matrix(0.999998,-0.002179,-0.002179,-0.999998,-845.005005,1114.189941)" style="stroke:#ff0000;stroke-width:0.05mm;fill:none" d="M284.609985,717.054993L284.609985,718.554993L286.109985,720.054993L286.109985,764.054993L284.609985,765.554993L284.609985,767.054993L287.609985,767.054993L287.609985,769.85498L317.609985,769.85498L317.609985,767.054993L320.609985,767.054993L320.609985,765.554993L319.109985,764.054993L319.109985,720.054993L320.609985,718.554993L320.609985,717.054993L319.109985,717.054993L319.109985,714.255005L298.609985,714.255005L298.609985,711.35498L293.109985,711.35498L293.109985,714.255005L286.109985,714.255005L286.109985,717.054993L284.609985,717.054993z"/>
    <path transform="matrix(-0.999998,-0.002179,0.002179,-0.999998,-243.020004,1114.189941)" style="stroke:#000000;stroke-width:0.05mm;fill:none" d="M294.609985,725.85498L293.721008,726.312012L310.971008,759.85498L292.609985,759.85498L292.609985,760.85498L312.609985,760.85498L294.609985,725.85498z"/>
    <path transform="matrix(-0.999998,-0.002179,0.002179,-0.999998,-243.020004,1114.189941)" style="stroke:#000000;stroke-width:0.05mm;fill:none" d="M332.835999,735.469971L332.840881,735.183289C332.976074,732.095642,334.697876,729.297302,337.393372,727.785278C341.393921,725.475586,346.460602,726.252319,349.585419,729.65448C352.732208,733.122803,352.551147,738.465881,349.17749,741.713989C345.27655,745.476135,339.071716,745.381897,335.286865,741.502991C333.723328,739.882751,332.845062,737.721558,332.835999,735.469971z"/>
    <path transform="matrix(-0.999998,-0.002179,0.002179,-0.999998,-243.020004,1114.189941)" style="stroke:#ff0000;stroke-width:0.05mm;fill:none" d="M358.835999,713.869995L338.335999,713.869995L338.335999,710.969971L332.835999,710.969971L332.835999,713.869995L325.835999,713.869995L325.835999,716.669983L324.335999,716.669983L324.335999,718.169983L325.835999,719.669983L325.835999,763.669983L324.335999,765.169983L324.335999,766.669983L327.335999,766.669983L327.335999,769.469971L357.335999,769.469971L357.335999,766.669983L360.335999,766.669983L360.335999,765.169983L358.835999,763.669983L358.835999,719.669983L360.335999,718.169983L360.335999,716.669983L358.835999,716.669983L358.835999,713.869995z"/>
    <path transform="matrix(-0.999998,-0.002179,0.002179,-0.999998,-583.716003,360.977997)" style="stroke:#000000;stroke-width:0.05mm;fill:none" d="M8.5,0C8.5,4.418272,4.694427,7.99999,0.000011,7.999996C-4.694405,8.000002,-8.499989,4.418292,-8.5,0.00002C-8.500012,-4.418251,-4.694448,-7.99998,-0.000032,-7.999996C4.694384,-8.000013,8.499976,-4.418312,8.5,-0.000041"/>
    <path transform="matrix(0.999998,0.002179,-0.002179,0.999998,-583.752991,377.977997)" style="stroke:#000000;stroke-width:0.05mm;fill:none" d="M10.5,0C10.5,5.522842,5.798996,9.999994,0.000013,10.000001C-5.79897,10.000008,-10.499986,5.522867,-10.5,0.000025C-10.500015,-5.522817,-5.799023,-9.99998,-0.00004,-10.000001C5.798944,-10.000022,10.49997,-5.522893,10.5,-0.000051"/>
    <path transform="matrix(-0.999998,-0.002179,0.002179,-0.999998,-243.020004,1114.189941)" style="stroke:#000000;stroke-width:0.05mm;fill:none" d="M349.835999,752.469971C349.78952,755.053406,348.320313,757.399658,346.016541,758.569641C343.018433,760.144897,339.350433,759.630615,336.900513,757.292236C335.218018,755.671326,334.500641,753.291504,335.006409,751.01062C335.603607,748.575989,337.428986,746.630066,339.819794,745.876404C342.697906,744.904114,345.878113,745.679749,347.984619,747.868713C349.157928,749.115112,349.817383,750.758301,349.835999,752.469971z"/>
    <path transform="matrix(0.999998,-0.002179,-0.002179,-0.999998,-1005.23999,1114.189941)" style="stroke:#ff0000;stroke-width:0.05mm;fill:none" d="M399.229004,713.960022L378.729004,713.960022L378.729004,711.059998L373.229004,711.059998L373.229004,713.960022L366.229004,713.960022L366.229004,716.76001L364.729004,716.76001L364.729004,718.26001L366.229004,719.76001L366.229004,763.76001L364.729004,765.26001L364.729004,766.76001L367.729004,766.76001L367.729004,769.559998L397.729004,769.559998L397.729004,766.76001L400.729004,766.76001L400.729004,765.26001L399.229004,763.76001L399.229004,719.76001L400.729004,718.26001L400.729004,716.76001L399.229004,716.76001L399.229004,713.960022z"/>
    <path transform="matrix(-0.999998,-0.002179,0.002179,-0.999998,-243.020004,1114.189941)" style="stroke:#000000;stroke-width:0.05mm;fill:none" d="M392.006012,746.049988L377.768005,723.700012L376.924988,724.237L388.700989,742.721985C383.982117,739.671875,377.723206,740.667969,374.184631,745.032288C370.646057,749.396606,370.965302,755.726257,374.925079,759.712341C378.884857,763.698486,385.212219,764.059692,389.599915,760.550171C393.98764,757.040588,395.025208,750.788452,392.006317,746.049744"/>
    <path transform="matrix(0.999998,-0.002179,-0.002179,-0.999998,-293.684998,1114.189941)" style="stroke:#ff0000;stroke-width:0.05mm;fill:none" d="M30.818501,651.330017L30.818501,654.22998L10.3185,654.22998L10.3185,657.030029L8.81855,657.030029L8.81855,658.530029L10.3185,660.030029L10.3185,704.030029L8.81855,705.530029L8.81855,707.030029L11.8185,707.030029L11.8185,709.830017L41.818501,709.830017L41.818501,707.030029L44.818501,707.030029L44.818501,705.530029L43.318501,704.030029L43.318501,660.030029L44.818501,658.530029L44.818501,657.030029L43.318501,657.030029L43.318501,654.22998L36.318501,654.22998L36.318501,651.330017L30.818501,651.330017z"/>
    <path transform="matrix(-0.999998,-0.002179,0.002179,-0.999998,-243.020004,1114.189941)" style="stroke:#000000;stroke-width:0.05mm;fill:none" d="M34.1936,685.182007L18.124001,666.030029L36.818501,666.030029L36.818501,665.030029L16.818501,665.030029L16.818501,666.030029L33.427601,685.823975C35.758942,688.602783,36.103638,692.542664,34.290146,695.683777C32.47665,698.824829,28.892241,700.496277,25.320351,699.866455C21.748463,699.236633,18.951885,696.440063,18.322063,692.868164L17.337299,693.041992C18.040077,697.02771,21.160803,700.148438,25.146704,700.851257C29.132605,701.554077,33.132477,699.688904,35.15617,696.183777C37.179863,692.678589,36.795212,688.282043,34.1936,685.18158"/>
    <path transform="matrix(-0.999998,-0.002179,0.002179,-0.999998,-243.020004,1114.189941)" style="stroke:#000000;stroke-width:0.05mm;fill:none" d="M65.972298,700.161011C64.690025,700.14032,63.446579,699.717407,62.41711,698.952637C61.219418,698.065247,60.202465,696.957214,59.420902,695.687927C58.167625,693.643921,57.264862,691.404785,56.749901,689.06311C55.578556,683.976624,55.725628,678.67572,57.177208,673.661987C57.76461,671.599915,58.69342,669.650818,59.925049,667.895752C60.737335,666.726074,61.78458,665.738403,62.999897,664.996216C64.933685,663.828369,67.372955,663.897827,69.237,665.174072C70.443474,665.990967,71.475883,667.03894,72.27478,668.257385C73.469116,670.078674,74.362183,672.080383,74.919701,674.18573C76.429825,679.763916,76.320999,685.655884,74.605843,691.1745C74.02272,693.049133,73.150223,694.821167,72.019691,696.426208C71.207367,697.595825,70.160095,698.583435,68.944847,699.325745C68.045761,699.863159,67.019722,700.151489,65.972298,700.161011z"/>
    <path transform="matrix(-0.999998,-0.002179,0.002179,-0.999998,-243.020004,1114.189941)" style="stroke:#ff0000;stroke-width:0.05mm;fill:none" d="M82.472298,654.361023L61.972301,654.361023L61.972301,651.460999L56.472301,651.460999L56.472301,654.361023L49.472301,654.361023L49.472301,657.161011L47.972301,657.161011L47.972301,658.661011L49.472301,660.161011L49.472301,704.161011L47.972301,705.661011L47.972301,707.161011L50.972301,707.161011L50.972301,709.960999L80.972298,709.960999L80.972298,707.161011L83.972298,707.161011L83.972298,705.661011L82.472298,704.161011L82.472298,660.161011L83.972298,658.661011L83.972298,657.161011L82.472298,657.161011L82.472298,654.361023z"/>
    <path transform="matrix(0.002179,-0.999998,0.999998,0.002179,-307.506012,431.889008)" style="stroke:#000000;stroke-width:0.05mm;fill:none" d="M19,0C19,6.075122,10.493423,10.999987,0.000024,10.999993C-10.493376,11.000001,-18.999973,6.07515,-19,0.000028C-19.000027,-6.075094,-10.493471,-10.999969,-0.000072,-10.999993C10.493328,-11.000016,18.999947,-6.075178,19,-0.000056"/>
    <path transform="matrix(-0.999998,-0.002179,0.002179,-0.999998,-243.020004,1114.189941)" style="stroke:#ff0000;stroke-width:0.05mm;fill:none" d="M108.709,651.388977L108.709,654.289001L88.208702,654.289001L88.208702,657.088989L86.708702,657.088989L86.708702,658.588989L88.208702,660.088989L88.208702,704.088989L86.708702,705.588989L86.708702,707.088989L89.708702,707.088989L89.708702,709.888977L119.709,709.888977L119.709,707.088989L122.709,707.088989L122.709,705.588989L121.209,704.088989L121.209,660.088989L122.709,658.588989L122.709,657.088989L121.209,657.088989L121.209,654.289001L114.209,654.289001L114.209,651.388977L108.709,651.388977z"/>
    <path transform="matrix(-0.999998,-0.002179,0.002179,-0.999998,-243.020004,1114.189941)" style="stroke:#000000;stroke-width:0.05mm;fill:none" d="M105.209,663.588989L104.209,663.588989L104.209,700.010986L98.280502,696.588989L97.780502,697.455017L105.209,701.742981L105.209,663.588989z"/>
    <path transform="matrix(-0.999998,-0.002179,0.002179,-0.999998,-243.020004,1114.189941)" style="stroke:#ff0000;stroke-width:0.05mm;fill:none" d="M125.561996,656.278992L125.561996,657.778992L127.061996,659.278992L127.061996,703.278992L125.561996,704.778992L125.561996,706.278992L128.561996,706.278992L128.561996,709.078979L158.561996,709.078979L158.561996,706.278992L161.561996,706.278992L161.561996,704.778992L160.061996,703.278992L160.061996,659.278992L161.561996,657.778992L161.561996,656.278992L160.061996,656.278992L160.061996,653.479004L153.061996,653.479004L153.061996,650.578979L147.561996,650.578979L147.561996,653.479004L127.061996,653.479004L127.061996,656.278992L125.561996,656.278992z"/>
    <path transform="matrix(-0.999998,-0.002179,0.002179,-0.999998,-243.020004,1114.189941)" style="stroke:#000000;stroke-width:0.05mm;fill:none" d="M140.759995,684.567993L134.966995,682.877991L138.026993,700.234985L155.026993,700.234985L155.026993,699.234985L138.865997,699.234985L136.231003,684.288025L140.479996,685.528015C145.867767,687.100769,151.574921,684.365234,153.72374,679.180786C155.872559,673.996338,153.773941,668.025513,148.853943,665.325562C143.933945,662.625671,137.770309,664.0625,134.551331,668.659668L135.369995,669.232971C138.296829,665.053955,143.900131,663.747803,148.372849,666.202271C152.845581,668.656738,154.753418,674.084717,152.799942,678.797852C150.846481,683.510986,145.658157,685.997864,140.760529,684.568542"/>
    <path transform="matrix(-0.999998,-0.002179,0.002179,-0.999998,-243.020004,1114.189941)" style="stroke:#ff0000;stroke-width:0.05mm;fill:none" d="M164.533997,656.536011L164.533997,658.036011L166.033997,659.536011L166.033997,703.536011L164.533997,705.036011L164.533997,706.536011L167.533997,706.536011L167.533997,709.335999L197.533997,709.335999L197.533997,706.536011L200.533997,706.536011L200.533997,705.036011L199.033997,703.536011L199.033997,659.536011L200.533997,658.036011L200.533997,656.536011L199.033997,656.536011L199.033997,653.736023L192.033997,653.736023L192.033997,650.835999L186.533997,650.835999L186.533997,653.736023L166.033997,653.736023L166.033997,656.536011L164.533997,656.536011z"/>
    <path transform="matrix(-0.999998,-0.002179,0.002179,-0.999998,-243.020004,1114.189941)" style="stroke:#000000;stroke-width:0.05mm;fill:none" d="M175.487,694.901001L174.546616,695.243164C175.888687,698.930481,179.580429,701.21991,183.480011,700.783203C187.379608,700.346497,190.47345,697.297119,190.966599,693.404236C191.459763,689.511414,189.224045,685.786926,185.556549,684.391541C190.288345,682.969238,193.388336,678.44043,193.001816,673.514587C192.615295,668.588806,188.846878,664.598938,183.951141,663.932068C179.055405,663.265198,174.357132,666.101807,172.667221,670.744812L173.606995,671.086975C175.255478,666.557434,180.034729,663.980469,184.724854,665.092102C189.414978,666.203674,192.529327,670.651428,191.969757,675.438904C191.410187,680.226318,187.35405,683.835999,182.533997,683.835999C182.115631,683.835999,181.697815,683.866882,181.283997,683.928406L181.283997,684.762024C181.698822,684.811035,182.116211,684.835999,182.533997,684.835999C186.339294,684.835999,189.541519,687.68573,189.983276,691.465332C190.425049,695.244873,187.966339,698.756287,184.263611,699.63385C180.560883,700.511414,176.787796,698.47699,175.486298,694.901123"/>
    <path transform="matrix(-0.999998,-0.002179,0.002179,-0.999998,-243.020004,1114.189941)" style="stroke:#000000;stroke-width:0.05mm;fill:none" d="M227.302994,697.219971L227.302994,675.390991L212.018997,675.390991L227.302994,697.219971z"/>
    <path transform="matrix(0.999998,-0.002179,-0.002179,-0.999998,-684.656982,1114.189941)" style="stroke:#ff0000;stroke-width:0.05mm;fill:none" d="M207.302994,708.991028L237.302994,708.991028L237.302994,706.190979L240.302994,706.190979L240.302994,704.690979L238.802994,703.190979L238.802994,659.190979L240.302994,657.690979L240.302994,656.190979L238.802994,656.190979L238.802994,653.390991L231.802994,653.390991L231.802994,650.491028L226.302994,650.491028L226.302994,653.390991L205.802994,653.390991L205.802994,656.190979L204.302994,656.190979L204.302994,657.690979L205.802994,659.190979L205.802994,703.190979L204.302994,704.690979L204.302994,706.190979L207.302994,706.190979L207.302994,708.991028z"/>
    <path transform="matrix(-0.999998,-0.002179,0.002179,-0.999998,-243.020004,1114.189941)" style="stroke:#000000;stroke-width:0.05mm;fill:none" d="M210.098007,674.390991L227.302994,674.390991L227.302994,664.390991L228.302994,664.390991L228.302994,674.390991L234.509003,674.390991L234.509003,675.390991L228.302994,675.390991L228.302994,700.390991L210.098007,674.390991z"/>
    <path transform="matrix(0.999998,-0.002179,-0.002179,-0.999998,-761.680664,1114.189941)" style="stroke:#ff0000;stroke-width:0.05mm;fill:none" d="M251.315002,650.508972L251.315002,653.408997L244.315002,653.408997L244.315002,656.208984L242.815002,656.208984L242.815002,657.708984L244.315002,659.208984L244.315002,703.208984L242.815002,704.708984L242.815002,706.208984L245.815002,706.208984L245.815002,709.008972L275.815002,709.008972L275.815002,706.208984L278.815002,706.208984L278.815002,704.708984L277.315002,703.208984L277.315002,659.208984L278.815002,657.708984L278.815002,656.208984L277.315002,656.208984L277.315002,653.408997L256.815002,653.408997L256.815002,650.508972L251.315002,650.508972z"/>
    <path transform="matrix(-0.999998,-0.002179,0.002179,-0.999998,-243.020004,1114.189941)" style="stroke:#000000;stroke-width:0.05mm;fill:none" d="M254.386993,695.708984L253.886993,696.575012L261.315002,700.864014L261.315002,662.708984L260.315002,662.708984L260.315002,699.132019L254.386993,695.708984z"/>
    <path transform="matrix(-0.999998,-0.002179,0.002179,-0.999998,-243.020004,1114.189941)" style="stroke:#ff0000;stroke-width:0.05mm;fill:none" d="M290.667999,650.208984L290.667999,653.109009L283.667999,653.109009L283.667999,655.908997L282.167999,655.908997L282.167999,657.408997L283.667999,658.908997L283.667999,702.908997L282.167999,704.408997L282.167999,705.908997L285.167999,705.908997L285.167999,708.708984L315.167999,708.708984L315.167999,705.908997L318.167999,705.908997L318.167999,704.408997L316.667999,702.908997L316.667999,658.908997L318.167999,657.408997L318.167999,655.908997L316.667999,655.908997L316.667999,653.109009L296.167999,653.109009L296.167999,650.208984L290.667999,650.208984z"/>
    <path transform="matrix(-0.999998,-0.002179,0.002179,-0.999998,-243.020004,1114.189941)" style="stroke:#000000;stroke-width:0.05mm;fill:none" d="M307.543091,684.060608C310.144714,687.161072,310.529358,691.557617,308.505676,695.062805C306.481964,698.567932,302.482117,700.433105,298.496216,699.730286C294.510315,699.027466,291.389587,695.906738,290.686768,691.920837L291.671997,691.747009C292.301392,695.319092,295.097961,698.115662,298.669861,698.745483C302.24173,699.375305,305.826141,697.703857,307.639648,694.562805C309.453125,691.421692,309.108429,687.481812,306.777069,684.703369L290.167999,664.908997L290.167999,663.908997L310.167999,663.908997L310.167999,664.908997L291.473999,664.908997L307.544006,684.059998"/>
    <path transform="matrix(-0.999998,-0.002179,0.002179,-0.999998,-243.020004,1114.189941)" style="stroke:#000000;stroke-width:0.05mm;fill:none" d="M340.265015,698.325989C338.983124,698.305115,337.740112,697.882385,336.710419,697.11853C335.512726,696.230835,334.495911,695.122375,333.714172,693.852966C332.460205,691.809265,331.557495,689.570007,331.042816,687.228149C329.826904,681.964111,330.029999,676.472229,331.631653,671.3125C332.214539,669.437866,333.087555,667.666199,334.218231,666.06134C335.031189,664.892029,336.078064,663.90387,337.293243,663.161194C339.226563,661.992554,341.666138,662.0625,343.529968,663.33905C344.736237,664.156433,345.768951,665.204224,346.567841,666.422852C347.76236,668.243896,348.655273,670.245544,349.21286,672.350769C350.722504,677.929077,350.613708,683.820984,348.898895,689.339722C348.315857,691.214294,347.443268,692.986206,346.312805,694.591248C345.500793,695.761292,344.453278,696.749023,343.237793,697.491272C342.338409,698.028076,341.312378,698.315552,340.265015,698.325989z"/>
    <path transform="matrix(-0.999998,-0.002179,0.002179,-0.999998,-243.020004,1114.189941)" style="stroke:#ff0000;stroke-width:0.05mm;fill:none" d="M325.265015,708.125977L355.265015,708.125977L355.265015,705.325989L358.265015,705.325989L358.265015,703.825989L356.765015,702.325989L356.765015,658.325989L358.265015,656.825989L358.265015,655.325989L356.765015,655.325989L356.765015,652.526001L336.265015,652.526001L336.265015,649.625977L330.765015,649.625977L330.765015,652.526001L323.765015,652.526001L323.765015,655.325989L322.265015,655.325989L322.265015,656.825989L323.765015,658.325989L323.765015,702.325989L322.265015,703.825989L322.265015,705.325989L325.265015,705.325989L325.265015,708.125977z"/>
    <path transform="matrix(0.002179,-0.999998,0.999998,0.002179,-581.802002,433.126007)" style="stroke:#000000;stroke-width:0.05mm;fill:none" d="M19,0C19,6.075122,10.493423,10.999987,0.000024,10.999993C-10.493376,11.000001,-18.999973,6.07515,-19,0.000028C-19.000027,-6.075094,-10.493471,-10.999969,-0.000072,-10.999993C10.493328,-11.000016,18.999947,-6.075178,19,-0.000056"/>
    <path transform="matrix(-0.999998,-0.002179,0.002179,-0.999998,-243.020004,1114.189941)" style="stroke:#ff0000;stroke-width:0.05mm;fill:none" d="M122.621002,775.645996L102.121002,775.645996L102.121002,772.745972L96.620697,772.745972L96.620697,775.645996L89.620697,775.645996L89.620697,778.445984L88.120697,778.445984L88.120697,779.945984L89.620697,781.445984L89.620697,825.445984L88.120697,826.945984L88.120697,828.445984L91.120697,828.445984L91.120697,831.346008L121.121002,831.346008L121.121002,828.445984L124.121002,828.445984L124.121002,826.945984L122.621002,825.445984L122.621002,781.445984L124.121002,779.945984L124.121002,778.445984L122.621002,778.445984L122.621002,775.645996z"/>
    <path transform="matrix(-0.999998,-0.002179,0.002179,-0.999998,-243.020004,1114.189941)" style="stroke:#000000;stroke-width:0.05mm;fill:none" d="M96.843399,803.057007L111.082001,825.406982L111.925003,824.869019L100.149002,806.383972C104.867882,809.434143,111.126793,808.438049,114.665367,804.07373C118.203957,799.709412,117.884697,793.379761,113.924927,789.393677C109.965157,785.407532,103.637787,785.046326,99.250076,788.555847C94.862373,792.06543,93.824814,798.317566,96.843697,803.056274"/>
    <path transform="matrix(-0.999998,-0.002179,0.002179,-0.999998,-243.020004,1114.189941)" style="stroke:#000000;stroke-width:0.05mm;fill:none" d="M66.664101,785.562012L67.664101,785.562012L67.664101,823.71698L60.235901,819.427979L60.735901,818.562012L66.664101,821.984985L66.664101,785.562012z"/>
    <path transform="matrix(-0.999998,-0.002179,0.002179,-0.999998,-243.020004,1114.189941)" style="stroke:#ff0000;stroke-width:0.05mm;fill:none" d="M52.164101,831.862L82.164101,831.862L82.164101,829.062012L85.164101,829.062012L85.164101,827.562012L83.664101,826.062012L83.664101,782.062012L85.164101,780.562012L85.164101,779.062012L83.664101,779.062012L83.664101,776.262024L76.664101,776.262024L76.664101,773.362L71.164101,773.362L71.164101,776.262024L50.664101,776.262024L50.664101,779.062012L49.164101,779.062012L49.164101,780.562012L50.664101,782.062012L50.664101,826.062012L49.164101,827.562012L49.164101,829.062012L52.164101,829.062012L52.164101,831.862z"/>
    <path transform="matrix(-0.999998,-0.002179,0.002179,-0.999998,-243.020004,1114.189941)" style="stroke:#000000;stroke-width:0.05mm;fill:none" d="M26.5998,822.062012C25.317644,822.041321,24.074114,821.619141,23.044609,820.854614C21.847057,819.966675,20.83017,818.858337,20.048403,817.588928C18.794949,815.545044,17.892166,813.305847,17.377401,810.964111C16.161512,805.700195,16.364737,800.208435,17.966349,795.048828C18.549198,793.174133,19.421806,791.402222,20.552549,789.797363C21.365009,788.627686,22.412262,787.639954,23.627396,786.897217C25.561165,785.729309,28.000454,785.798828,29.864496,787.075073C31.070751,787.892456,32.103127,788.940491,32.902283,790.158875C34.096897,791.980042,34.990002,793.981873,35.547203,796.087402C37.057289,801.665466,36.948429,807.557251,35.233341,813.075684C34.650391,814.950317,33.77779,816.72229,32.64719,818.327209C31.834949,819.497131,30.787636,820.484985,29.572348,821.227661C28.673157,821.764709,27.647121,822.052551,26.5998,822.062012z"/>
    <path transform="matrix(-0.999998,-0.002179,0.002179,-0.999998,-243.020004,1114.189941)" style="stroke:#ff0000;stroke-width:0.05mm;fill:none" d="M43.0998,776.262024L22.5998,776.262024L22.5998,773.362L17.0998,773.362L17.0998,776.262024L10.0998,776.262024L10.0998,779.062012L8.59985,779.062012L8.59985,780.562012L10.0998,782.062012L10.0998,826.062012L8.59985,827.562012L8.59985,829.062012L11.5998,829.062012L11.5998,831.862L41.5998,831.862L41.5998,829.062012L44.5998,829.062012L44.5998,827.562012L43.0998,826.062012L43.0998,782.062012L44.5998,780.562012L44.5998,779.062012L43.0998,779.062012L43.0998,776.262024z"/>
    <path transform="matrix(0.002179,-0.999998,0.999998,0.002179,-267.868011,310.074005)" style="stroke:#000000;stroke-width:0.05mm;fill:none" d="M19,0C19,6.075122,10.493423,10.999987,0.000024,10.999993C-10.493376,11.000001,-18.999973,6.07515,-19,0.000028C-19.000027,-6.075094,-10.493471,-10.999969,-0.000072,-10.999993C10.493328,-11.000016,18.999947,-6.075178,19,-0.000056"/>
    <path transform="matrix(-0.999998,-0.002179,0.002179,-0.999998,-243.020004,1114.189941)" style="stroke:#ff0000;stroke-width:0.05mm;fill:none" d="M364.721985,655.700012L364.721985,657.200012L366.221985,658.700012L366.221985,702.700012L364.721985,704.200012L364.721985,705.700012L367.721985,705.700012L367.721985,708.34198L381.721985,708.34198L381.779999,705.599976L384.779999,705.599976L384.779999,704.099976L383.221985,702.659973L383.221985,658.700012L384.721985,657.200012L384.721985,655.700012L383.221985,655.700012L383.221985,652.900024L377.471985,652.900024L377.471985,650L371.971985,650L371.971985,652.900024L366.221985,652.900024L366.221985,655.700012L364.721985,655.700012z"/>
</svg>
