<?xml version="1.0" encoding="UTF-8"?>
<svg xmlns="http://www.w3.org/2000/svg" xmlns:xlink="http://www.w3.org/1999/xlink" width="261.696mm" height="486.896mm" viewBox="-681.844910 79.552002 261.696411 486.896362">
    <circle transform="matrix(-0.012495,0.999922,0.999922,0.012495,-554.661987,394.869995)" style="stroke:#ff0000;stroke-width:0.05mm;fill:none" r="1.5" cx="0" cy="0"/>
    <circle transform="matrix(-0.012495,0.999922,0.999922,0.012495,-555.093994,429.367004)" style="stroke:#ff0000;stroke-width:0.05mm;fill:none" r="1.5" cx="0" cy="0"/>
    <circle transform="matrix(-0.012495,0.999922,0.999922,0.012495,-512.078003,429.906006)" style="stroke:#ff0000;stroke-width:0.05mm;fill:none" r="1.5" cx="0" cy="0"/>
    <circle transform="matrix(-0.012495,0.999922,0.999922,0.012495,-511.647003,395.408997)" style="stroke:#ff0000;stroke-width:0.05mm;fill:none" r="1.5" cx="0" cy="0"/>
    <circle transform="matrix(-0.012495,0.999922,0.999922,0.012495,-555.088013,439.023987)" style="stroke:#ff0000;stroke-width:0.05mm;fill:none" r="1.5" cx="0" cy="0"/>
    <circle transform="matrix(-0.012495,0.999922,0.999922,0.012495,-555.52002,473.52301)" style="stroke:#ff0000;stroke-width:0.05mm;fill:none" r="1.5" cx="0" cy="0"/>
    <circle transform="matrix(-0.012495,0.999922,0.999922,0.012495,-512.504028,474.061005)" style="stroke:#ff0000;stroke-width:0.05mm;fill:none" r="1.5" cx="0" cy="0"/>
    <circle transform="matrix(-0.012495,0.999922,0.999922,0.012495,-512.072021,439.562988)" style="stroke:#ff0000;stroke-width:0.05mm;fill:none" r="1.5" cx="0" cy="0"/>
    <circle transform="matrix(-0.012495,0.999922,0.999922,0.012495,-619.072021,133.128006)" style="stroke:#ff0000;stroke-width:0.05mm;fill:none" r="1.5" cx="0" cy="0"/>
    <circle transform="matrix(-0.012495,0.999922,0.999922,0.012495,-619.302979,151.626007)" style="stroke:#ff0000;stroke-width:0.05mm;fill:none" r="1.5" cx="0" cy="0"/>
    <circle transform="matrix(-0.012495,0.999922,0.999922,0.012495,-576.286011,152.164001)" style="stroke:#ff0000;stroke-width:0.05mm;fill:none" r="1.5" cx="0" cy="0"/>
    <circle transform="matrix(-0.012495,0.999922,0.999922,0.012495,-576.054993,133.664993)" style="stroke:#ff0000;stroke-width:0.05mm;fill:none" r="1.5" cx="0" cy="0"/>
    <circle transform="matrix(-0.012495,0.999922,0.999922,0.012495,-619.491028,161.330994)" style="stroke:#ff0000;stroke-width:0.05mm;fill:none" r="1.5" cx="0" cy="0"/>
    <circle transform="matrix(-0.012495,0.999922,0.999922,0.012495,-619.922974,195.828995)" style="stroke:#ff0000;stroke-width:0.05mm;fill:none" r="1.5" cx="0" cy="0"/>
    <circle transform="matrix(-0.012495,0.999922,0.999922,0.012495,-576.906982,196.367004)" style="stroke:#ff0000;stroke-width:0.05mm;fill:none" r="1.5" cx="0" cy="0"/>
    <circle transform="matrix(-0.012495,0.999922,0.999922,0.012495,-576.476013,161.869003)" style="stroke:#ff0000;stroke-width:0.05mm;fill:none" r="1.5" cx="0" cy="0"/>
    <circle transform="matrix(-0.012495,0.999922,0.999922,0.012495,-620.038025,205.513)" style="stroke:#ff0000;stroke-width:0.05mm;fill:none" r="1.5" cx="0" cy="0"/>
    <circle transform="matrix(-0.012495,0.999922,0.999922,0.012495,-620.471008,240.011002)" style="stroke:#ff0000;stroke-width:0.05mm;fill:none" r="1.5" cx="0" cy="0"/>
    <circle transform="matrix(-0.012495,0.999922,0.999922,0.012495,-577.453979,240.548996)" style="stroke:#ff0000;stroke-width:0.05mm;fill:none" r="1.5" cx="0" cy="0"/>
    <circle transform="matrix(-0.012495,0.999922,0.999922,0.012495,-577.02301,206.052002)" style="stroke:#ff0000;stroke-width:0.05mm;fill:none" r="1.5" cx="0" cy="0"/>
    <circle transform="matrix(-0.012495,0.999922,0.999922,0.012495,-578.221985,338.145996)" style="stroke:#ff0000;stroke-width:0.05mm;fill:none" r="1.5" cx="0" cy="0"/>
    <circle transform="matrix(-0.012495,0.999922,0.999922,0.012495,-578.453979,356.644989)" style="stroke:#ff0000;stroke-width:0.05mm;fill:none" r="1.5" cx="0" cy="0"/>
    <circle transform="matrix(-0.012495,0.999922,0.999922,0.012495,-621.469971,356.106995)" style="stroke:#ff0000;stroke-width:0.05mm;fill:none" r="1.5" cx="0" cy="0"/>
    <circle transform="matrix(-0.012495,0.999922,0.999922,0.012495,-621.239014,337.609009)" style="stroke:#ff0000;stroke-width:0.05mm;fill:none" r="1.5" cx="0" cy="0"/>
    <circle transform="matrix(-0.012495,0.999922,0.999922,0.012495,-621.408997,365.696014)" style="stroke:#ff0000;stroke-width:0.05mm;fill:none" r="1.5" cx="0" cy="0"/>
    <circle transform="matrix(-0.012495,0.999922,0.999922,0.012495,-621.640015,384.194)" style="stroke:#ff0000;stroke-width:0.05mm;fill:none" r="1.5" cx="0" cy="0"/>
    <circle transform="matrix(-0.012495,0.999922,0.999922,0.012495,-578.624023,384.731995)" style="stroke:#ff0000;stroke-width:0.05mm;fill:none" r="1.5" cx="0" cy="0"/>
    <circle transform="matrix(-0.012495,0.999922,0.999922,0.012495,-578.392029,366.233002)" style="stroke:#ff0000;stroke-width:0.05mm;fill:none" r="1.5" cx="0" cy="0"/>
    <circle transform="matrix(-0.012495,0.999922,0.999922,0.012495,-578.664978,429.765015)" style="stroke:#ff0000;stroke-width:0.05mm;fill:none" r="1.5" cx="0" cy="0"/>
    <circle transform="matrix(-0.012495,0.999922,0.999922,0.012495,-621.250977,394.730011)" style="stroke:#ff0000;stroke-width:0.05mm;fill:none" r="1.5" cx="0" cy="0"/>
    <circle transform="matrix(-0.012495,0.999922,0.999922,0.012495,-621.682007,429.22699)" style="stroke:#ff0000;stroke-width:0.05mm;fill:none" r="1.5" cx="0" cy="0"/>
    <circle transform="matrix(-0.012495,0.999922,0.999922,0.012495,-578.234009,395.268005)" style="stroke:#ff0000;stroke-width:0.05mm;fill:none" r="1.5" cx="0" cy="0"/>
    <circle transform="matrix(-0.012495,0.999922,0.999922,0.012495,-578.950012,473.606995)" style="stroke:#ff0000;stroke-width:0.05mm;fill:none" r="1.5" cx="0" cy="0"/>
    <circle transform="matrix(-0.012495,0.999922,0.999922,0.012495,-621.536011,438.571991)" style="stroke:#ff0000;stroke-width:0.05mm;fill:none" r="1.5" cx="0" cy="0"/>
    <circle transform="matrix(-0.012495,0.999922,0.999922,0.012495,-621.96698,473.069)" style="stroke:#ff0000;stroke-width:0.05mm;fill:none" r="1.5" cx="0" cy="0"/>
    <circle transform="matrix(-0.012495,0.999922,0.999922,0.012495,-578.518982,439.109009)" style="stroke:#ff0000;stroke-width:0.05mm;fill:none" r="1.5" cx="0" cy="0"/>
    <circle transform="matrix(-0.012495,0.999922,0.999922,0.012495,-675.612976,167.345001)" style="stroke:#ff0000;stroke-width:0.05mm;fill:none" r="1.5" cx="0" cy="0"/>
    <circle transform="matrix(-0.012495,0.999922,0.999922,0.012495,-632.164978,133.384995)" style="stroke:#ff0000;stroke-width:0.05mm;fill:none" r="1.5" cx="0" cy="0"/>
    <circle transform="matrix(-0.012495,0.999922,0.999922,0.012495,-632.596008,167.882004)" style="stroke:#ff0000;stroke-width:0.05mm;fill:none" r="1.5" cx="0" cy="0"/>
    <circle transform="matrix(-0.012495,0.999922,0.999922,0.012495,-675.182007,132.847)" style="stroke:#ff0000;stroke-width:0.05mm;fill:none" r="1.5" cx="0" cy="0"/>
    <circle transform="matrix(-0.012495,0.999922,0.999922,0.012495,-676.257019,212.098999)" style="stroke:#ff0000;stroke-width:0.05mm;fill:none" r="1.5" cx="0" cy="0"/>
    <circle transform="matrix(-0.012495,0.999922,0.999922,0.012495,-632.809021,178.139008)" style="stroke:#ff0000;stroke-width:0.05mm;fill:none" r="1.5" cx="0" cy="0"/>
    <circle transform="matrix(-0.012495,0.999922,0.999922,0.012495,-633.241028,212.636993)" style="stroke:#ff0000;stroke-width:0.05mm;fill:none" r="1.5" cx="0" cy="0"/>
    <circle transform="matrix(-0.012495,0.999922,0.999922,0.012495,-675.825989,177.602005)" style="stroke:#ff0000;stroke-width:0.05mm;fill:none" r="1.5" cx="0" cy="0"/>
    <circle transform="matrix(-0.012495,0.999922,0.999922,0.012495,-676.643005,346.575012)" style="stroke:#ff0000;stroke-width:0.05mm;fill:none" r="1.5" cx="0" cy="0"/>
    <circle transform="matrix(-0.012495,0.999922,0.999922,0.012495,-633.195984,312.61499)" style="stroke:#ff0000;stroke-width:0.05mm;fill:none" r="1.5" cx="0" cy="0"/>
    <circle transform="matrix(-0.012495,0.999922,0.999922,0.012495,-633.627014,347.113007)" style="stroke:#ff0000;stroke-width:0.05mm;fill:none" r="1.5" cx="0" cy="0"/>
    <circle transform="matrix(-0.012495,0.999922,0.999922,0.012495,-676.211975,312.078003)" style="stroke:#ff0000;stroke-width:0.05mm;fill:none" r="1.5" cx="0" cy="0"/>
    <circle transform="matrix(-0.012495,0.999922,0.999922,0.012495,-677.155029,392.212006)" style="stroke:#ff0000;stroke-width:0.05mm;fill:none" r="1.5" cx="0" cy="0"/>
    <circle transform="matrix(-0.012495,0.999922,0.999922,0.012495,-633.70697,358.252991)" style="stroke:#ff0000;stroke-width:0.05mm;fill:none" r="1.5" cx="0" cy="0"/>
    <circle transform="matrix(-0.012495,0.999922,0.999922,0.012495,-634.138,392.75)" style="stroke:#ff0000;stroke-width:0.05mm;fill:none" r="1.5" cx="0" cy="0"/>
    <circle transform="matrix(-0.012495,0.999922,0.999922,0.012495,-676.723999,357.714996)" style="stroke:#ff0000;stroke-width:0.05mm;fill:none" r="1.5" cx="0" cy="0"/>
    <circle transform="matrix(-0.012495,0.999922,0.999922,0.012495,-677.72699,437.988007)" style="stroke:#ff0000;stroke-width:0.05mm;fill:none" r="1.5" cx="0" cy="0"/>
    <circle transform="matrix(-0.012495,0.999922,0.999922,0.012495,-634.278992,404.028015)" style="stroke:#ff0000;stroke-width:0.05mm;fill:none" r="1.5" cx="0" cy="0"/>
    <circle transform="matrix(-0.012495,0.999922,0.999922,0.012495,-634.710022,438.524994)" style="stroke:#ff0000;stroke-width:0.05mm;fill:none" r="1.5" cx="0" cy="0"/>
    <circle transform="matrix(-0.012495,0.999922,0.999922,0.012495,-677.296021,403.48999)" style="stroke:#ff0000;stroke-width:0.05mm;fill:none" r="1.5" cx="0" cy="0"/>
    <circle transform="matrix(-0.012495,0.999922,0.999922,0.012495,-677.890991,484.179993)" style="stroke:#ff0000;stroke-width:0.05mm;fill:none" r="1.5" cx="0" cy="0"/>
    <circle transform="matrix(-0.012495,0.999922,0.999922,0.012495,-634.442993,450.221008)" style="stroke:#ff0000;stroke-width:0.05mm;fill:none" r="1.5" cx="0" cy="0"/>
    <circle transform="matrix(-0.012495,0.999922,0.999922,0.012495,-634.874023,484.717987)" style="stroke:#ff0000;stroke-width:0.05mm;fill:none" r="1.5" cx="0" cy="0"/>
    <circle transform="matrix(-0.012495,0.999922,0.999922,0.012495,-677.460022,449.683014)" style="stroke:#ff0000;stroke-width:0.05mm;fill:none" r="1.5" cx="0" cy="0"/>
    <circle transform="matrix(-0.012495,0.999922,0.999922,0.012495,-678.364014,511.661011)" style="stroke:#ff0000;stroke-width:0.05mm;fill:none" r="1.5" cx="0" cy="0"/>
    <circle transform="matrix(-0.012495,0.999922,0.999922,0.012495,-635.348022,512.197998)" style="stroke:#ff0000;stroke-width:0.05mm;fill:none" r="1.5" cx="0" cy="0"/>
    <circle transform="matrix(-0.012495,0.999922,0.999922,0.012495,-678.132996,493.161987)" style="stroke:#ff0000;stroke-width:0.05mm;fill:none" r="1.5" cx="0" cy="0"/>
    <circle transform="matrix(-0.012495,0.999922,0.999922,0.012495,-635.117004,493.700012)" style="stroke:#ff0000;stroke-width:0.05mm;fill:none" r="1.5" cx="0" cy="0"/>
    <circle transform="matrix(-0.012495,0.999922,0.999922,0.012495,-635.307007,521.955994)" style="stroke:#ff0000;stroke-width:0.05mm;fill:none" r="1.5" cx="0" cy="0"/>
    <circle transform="matrix(-0.012495,0.999922,0.999922,0.012495,-635.538025,540.455017)" style="stroke:#ff0000;stroke-width:0.05mm;fill:none" r="1.5" cx="0" cy="0"/>
    <circle transform="matrix(-0.012495,0.999922,0.999922,0.012495,-678.554993,539.916992)" style="stroke:#ff0000;stroke-width:0.05mm;fill:none" r="1.5" cx="0" cy="0"/>
    <circle transform="matrix(-0.012495,0.999922,0.999922,0.012495,-678.323975,521.419006)" style="stroke:#ff0000;stroke-width:0.05mm;fill:none" r="1.5" cx="0" cy="0"/>
    <circle transform="matrix(-0.012495,0.999922,0.999922,0.012495,-620.612,248.634003)" style="stroke:#ff0000;stroke-width:0.05mm;fill:none" r="1.5" cx="0" cy="0"/>
    <circle transform="matrix(-0.012495,0.999922,0.999922,0.012495,-621.044006,283.131989)" style="stroke:#ff0000;stroke-width:0.05mm;fill:none" r="1.5" cx="0" cy="0"/>
    <circle transform="matrix(-0.012495,0.999922,0.999922,0.012495,-578.028015,283.669006)" style="stroke:#ff0000;stroke-width:0.05mm;fill:none" r="1.5" cx="0" cy="0"/>
    <circle transform="matrix(-0.012495,0.999922,0.999922,0.012495,-577.596985,249.171997)" style="stroke:#ff0000;stroke-width:0.05mm;fill:none" r="1.5" cx="0" cy="0"/>
    <circle transform="matrix(-0.012495,0.999922,0.999922,0.012495,-621.156982,292.200012)" style="stroke:#ff0000;stroke-width:0.05mm;fill:none" r="1.5" cx="0" cy="0"/>
    <circle transform="matrix(-0.012495,0.999922,0.999922,0.012495,-621.588989,326.697998)" style="stroke:#ff0000;stroke-width:0.05mm;fill:none" r="1.5" cx="0" cy="0"/>
    <circle transform="matrix(-0.012495,0.999922,0.999922,0.012495,-578.572021,327.237)" style="stroke:#ff0000;stroke-width:0.05mm;fill:none" r="1.5" cx="0" cy="0"/>
    <circle transform="matrix(-0.012495,0.999922,0.999922,0.012495,-578.140991,292.739014)" style="stroke:#ff0000;stroke-width:0.05mm;fill:none" r="1.5" cx="0" cy="0"/>
    <circle transform="matrix(-0.012495,0.999922,0.999922,0.012495,-555.499023,482.783997)" style="stroke:#ff0000;stroke-width:0.05mm;fill:none" r="1.5" cx="0" cy="0"/>
    <circle transform="matrix(-0.012495,0.999922,0.999922,0.012495,-555.932007,517.281982)" style="stroke:#ff0000;stroke-width:0.05mm;fill:none" r="1.5" cx="0" cy="0"/>
    <circle transform="matrix(-0.012495,0.999922,0.999922,0.012495,-512.914978,517.820007)" style="stroke:#ff0000;stroke-width:0.05mm;fill:none" r="1.5" cx="0" cy="0"/>
    <circle transform="matrix(-0.012495,0.999922,0.999922,0.012495,-512.484009,483.322998)" style="stroke:#ff0000;stroke-width:0.05mm;fill:none" r="1.5" cx="0" cy="0"/>
    <circle transform="matrix(-0.012495,0.999922,0.999922,0.012495,-556.054016,527.182007)" style="stroke:#ff0000;stroke-width:0.05mm;fill:none" r="1.5" cx="0" cy="0"/>
    <circle transform="matrix(-0.012495,0.999922,0.999922,0.012495,-556.487,561.679016)" style="stroke:#ff0000;stroke-width:0.05mm;fill:none" r="1.5" cx="0" cy="0"/>
    <circle transform="matrix(-0.012495,0.999922,0.999922,0.012495,-513.469971,562.218018)" style="stroke:#ff0000;stroke-width:0.05mm;fill:none" r="1.5" cx="0" cy="0"/>
    <circle transform="matrix(-0.012495,0.999922,0.999922,0.012495,-513.039001,527.721008)" style="stroke:#ff0000;stroke-width:0.05mm;fill:none" r="1.5" cx="0" cy="0"/>
    <circle transform="matrix(-0.012495,0.999922,0.999922,0.012495,-579.822998,518.16803)" style="stroke:#ff0000;stroke-width:0.05mm;fill:none" r="1.5" cx="0" cy="0"/>
    <circle transform="matrix(-0.012495,0.999922,0.999922,0.012495,-579.392029,483.67099)" style="stroke:#ff0000;stroke-width:0.05mm;fill:none" r="1.5" cx="0" cy="0"/>
    <circle transform="matrix(-0.012495,0.999922,0.999922,0.012495,-622.408997,483.132996)" style="stroke:#ff0000;stroke-width:0.05mm;fill:none" r="1.5" cx="0" cy="0"/>
    <circle transform="matrix(-0.012495,0.999922,0.999922,0.012495,-622.840027,517.630981)" style="stroke:#ff0000;stroke-width:0.05mm;fill:none" r="1.5" cx="0" cy="0"/>
    <circle transform="matrix(-0.012495,0.999922,0.999922,0.012495,-580.38501,563.15802)" style="stroke:#ff0000;stroke-width:0.05mm;fill:none" r="1.5" cx="0" cy="0"/>
    <circle transform="matrix(-0.012495,0.999922,0.999922,0.012495,-579.953979,528.659973)" style="stroke:#ff0000;stroke-width:0.05mm;fill:none" r="1.5" cx="0" cy="0"/>
    <circle transform="matrix(-0.012495,0.999922,0.999922,0.012495,-623.401978,562.619995)" style="stroke:#ff0000;stroke-width:0.05mm;fill:none" r="1.5" cx="0" cy="0"/>
    <circle transform="matrix(-0.012495,0.999922,0.999922,0.012495,-622.971008,528.122986)" style="stroke:#ff0000;stroke-width:0.05mm;fill:none" r="1.5" cx="0" cy="0"/>
    <circle transform="matrix(-0.012495,0.999922,0.999922,0.012495,-676.390991,302.042999)" style="stroke:#ff0000;stroke-width:0.05mm;fill:none" r="1.5" cx="0" cy="0"/>
    <circle transform="matrix(-0.012495,0.999922,0.999922,0.012495,-632.942993,268.083008)" style="stroke:#ff0000;stroke-width:0.05mm;fill:none" r="1.5" cx="0" cy="0"/>
    <circle transform="matrix(-0.012495,0.999922,0.999922,0.012495,-633.374023,302.579987)" style="stroke:#ff0000;stroke-width:0.05mm;fill:none" r="1.5" cx="0" cy="0"/>
    <circle transform="matrix(-0.012495,0.999922,0.999922,0.012495,-675.960022,267.54599)" style="stroke:#ff0000;stroke-width:0.05mm;fill:none" r="1.5" cx="0" cy="0"/>
    <circle transform="matrix(-0.012495,0.999922,0.999922,0.012495,-675.828979,257.052002)" style="stroke:#ff0000;stroke-width:0.05mm;fill:none" r="1.5" cx="0" cy="0"/>
    <circle transform="matrix(-0.012495,0.999922,0.999922,0.012495,-632.380981,223.093002)" style="stroke:#ff0000;stroke-width:0.05mm;fill:none" r="1.5" cx="0" cy="0"/>
    <circle transform="matrix(-0.012495,0.999922,0.999922,0.012495,-632.812012,257.589996)" style="stroke:#ff0000;stroke-width:0.05mm;fill:none" r="1.5" cx="0" cy="0"/>
    <circle transform="matrix(-0.012495,0.999922,0.999922,0.012495,-675.39801,222.554993)" style="stroke:#ff0000;stroke-width:0.05mm;fill:none" r="1.5" cx="0" cy="0"/>
    <path transform="matrix(-0.012495,0.999922,0.999922,0.012495,-1251.880005,109.931)" style="stroke:#ff0000;stroke-width:0.05mm;fill:none" d="M115.820641,808.250183L113.689583,810.109924C114.067078,807.957397,115.936539,806.387268,118.121933,806.387268L121.101051,806.387268L119.955147,807.387268L118.121933,807.387268C117.275742,807.387268,116.458199,807.693848,115.820641,808.250244"/>
    <path transform="matrix(-0.012495,0.999922,0.999922,0.012495,-1251.880005,109.931)" style="stroke:#ff0000;stroke-width:0.05mm;fill:none" d="M113.621933,818.387268L113.621933,813.874634L114.621933,814.975647L114.621933,818.387268C114.621933,820.205444,115.608932,821.880371,117.199478,822.76123L118.596062,824.298889C115.72113,823.800049,113.621933,821.305176,113.621933,818.387268z"/>
    <path transform="matrix(-0.012495,0.999922,0.999922,0.012495,-1251.880005,109.931)" style="stroke:#ff0000;stroke-width:0.05mm;fill:none" d="M112.121933,815.387268L112.121933,807.846497L111.121933,808.909241L111.121933,815.387268C111.121933,818.731445,109.041817,821.722778,105.906822,822.886902L104.611893,824.263062C108.946823,823.5354,112.121933,819.782837,112.121933,815.387268z"/>
    <path transform="matrix(-0.012495,0.999922,0.999922,0.012495,-1251.880005,109.931)" style="stroke:#ff0000;stroke-width:0.05mm;fill:none" d="M122.554291,807.164551L120.423233,809.024292C119.785667,809.580688,118.968117,809.887268,118.121933,809.887268L116.288712,809.887268L115.142807,810.887268L118.121933,810.887268C120.307327,810.887268,122.176788,809.317139,122.554291,807.164612"/>
    <path transform="matrix(-0.012495,0.999922,0.999922,0.012495,-1251.880005,109.931)" style="stroke:#ff0000;stroke-width:0.05mm;fill:none" d="M110.631981,806.511414L109.337044,807.887634C106.202042,809.051758,104.121933,812.043091,104.121933,815.387268L104.121933,821.865234L103.121933,822.927979L103.121933,815.387268C103.121933,810.991699,106.29705,807.239136,110.631973,806.511475"/>
    <path transform="matrix(-0.012495,0.999922,0.999922,0.012495,-1251.880005,109.931)" style="stroke:#ff0000;stroke-width:0.05mm;fill:none" d="M114.647797,812.475647C117.522743,812.974548,119.621933,815.46936,119.621933,818.387268L119.621933,822.899902L118.621933,821.798889L118.621933,818.387268C118.621933,816.569092,117.634941,814.894165,116.044388,814.013306L114.647797,812.475647z"/>
    <path transform="matrix(-0.012495,0.999922,0.999922,0.012495,-1251.880005,109.931)" style="stroke:#ff0000;stroke-width:0.05mm;fill:none" d="M213.371933,809.257263L216.371933,809.257263L216.371933,824.757263L213.371933,824.757263L213.371933,829.007263L211.871933,829.007263L208.871933,832.007263L177.131943,832.007263L173.871933,828.747253L173.671936,828.747253L173.671936,821.447266L171.07193,821.447266L171.07193,828.747253L170.871933,828.747253L167.611938,832.007263L135.871933,832.007263L132.871933,829.007263L131.121933,829.007263L131.121933,824.507263L125.621933,824.507263L125.621933,829.007263L123.871933,829.007263L120.871933,832.007263L104.871933,832.007263L101.871933,829.007263L100.121933,829.007263L100.121933,824.507263L94.621933,824.507263L94.621933,829.007263L92.871933,829.007263L89.871933,832.007263L58.131935,832.007263L54.871937,828.747253L54.671936,828.747253L54.671936,821.447266L52.071934,821.447266L52.071934,828.747253L51.871933,828.747253L48.611935,832.007263L16.871937,832.007263L13.871939,829.007263L12.371936,829.007263L12.371936,824.757263L9.371937,824.757263L9.371937,809.257263L12.371936,809.257263L12.371936,798.767273L51.871933,798.767273L51.871933,798.77533L52.071934,798.77533L52.071934,806.447266L54.671936,806.447266L54.671936,798.77533L54.871937,798.77533L54.871937,798.767273L94.621933,798.767273L94.621933,809.507263L100.121933,809.507263L100.121933,798.767273L125.621933,798.767273L125.621933,809.507263L131.121933,809.507263L131.121933,798.767273L170.871933,798.767273L170.871933,798.77533L171.07193,798.77533L171.07193,806.447266L173.671936,806.447266L173.671936,798.77533L173.871933,798.77533L173.871933,798.767273L213.371933,798.767273L213.371933,809.257263z"/>
    <path transform="matrix(-0.012495,0.999922,0.999922,0.012495,-1251.880005,109.931)" style="stroke:#ff0000;stroke-width:0.05mm;fill:none" d="M26.571362,754.650574L16.871363,754.650574L16.871363,757.350586L26.571362,757.350586L26.571362,754.650574z"/>
    <path transform="matrix(-0.012495,0.999922,0.999922,0.012495,-1251.880005,109.931)" style="stroke:#ff0000;stroke-width:0.05mm;fill:none" d="M61.871365,757.350586L71.571365,757.350586L71.571365,754.650574L61.871365,754.650574L61.871365,757.350586z"/>
    <path transform="matrix(-0.012495,0.999922,0.999922,0.012495,-1251.880005,109.931)" style="stroke:#ff0000;stroke-width:0.05mm;fill:none" d="M36.871365,757.350586L51.571365,757.350586L51.571365,754.650574L36.871365,754.650574L36.871365,757.350586z"/>
    <path transform="matrix(-0.012495,0.999922,0.999922,0.012495,-1251.880005,109.931)" style="stroke:#ff0000;stroke-width:0.05mm;fill:none" d="M34.371361,788.650574L34.371361,791.350586L54.071362,791.350586L54.071362,788.650574L34.371361,788.650574z"/>
    <path transform="matrix(-0.012495,0.999922,0.999922,0.012495,-1251.880005,109.931)" style="stroke:#ff0000;stroke-width:0.05mm;fill:none" d="M14.259903,769.048401L11.322099,769.656067L9.221363,759.50061L9.221363,749.50061L79.221367,749.50061L79.221367,759.50061L77.120628,769.656067L74.182823,769.048401L71.144295,783.737427L74.0821,784.345093L71.981369,794.50061L16.461363,794.50061L14.360627,784.345093L17.298431,783.737427L14.259903,769.048401z"/>
    <path transform="matrix(-0.012495,0.999922,0.999922,0.012495,-1251.880005,109.931)" style="stroke:#ff0000;stroke-width:0.05mm;fill:none" d="M16.504068,762.619141L20.823545,783.50061L41.721363,783.50061L41.721363,762.619141L16.504068,762.619141z"/>
    <path transform="matrix(-0.012495,0.999922,0.999922,0.012495,-1251.880005,109.931)" style="stroke:#ff0000;stroke-width:0.05mm;fill:none" d="M71.93866,762.619141L67.619179,783.50061L46.721363,783.50061L46.721363,762.619141L71.93866,762.619141z"/>
    <path transform="matrix(-0.012495,0.999922,0.999922,0.012495,-1251.880005,109.931)" style="stroke:#ff0000;stroke-width:0.05mm;fill:none" d="M129.35437,789.568237L139.054367,789.568237L139.054367,786.868286L129.35437,786.868286L129.35437,789.568237z"/>
    <path transform="matrix(-0.012495,0.999922,0.999922,0.012495,-1251.880005,109.931)" style="stroke:#ff0000;stroke-width:0.05mm;fill:none" d="M94.054367,786.868286L84.354362,786.868286L84.354362,789.568237L94.054367,789.568237L94.054367,786.868286z"/>
    <path transform="matrix(-0.012495,0.999922,0.999922,0.012495,-1251.880005,109.931)" style="stroke:#ff0000;stroke-width:0.05mm;fill:none" d="M119.054367,786.868286L104.354362,786.868286L104.354362,789.568237L119.054367,789.568237L119.054367,786.868286z"/>
    <path transform="matrix(-0.012495,0.999922,0.999922,0.012495,-1251.880005,109.931)" style="stroke:#ff0000;stroke-width:0.05mm;fill:none" d="M121.554367,755.568237L121.554367,752.868286L101.854362,752.868286L101.854362,755.568237L121.554367,755.568237z"/>
    <path transform="matrix(-0.012495,0.999922,0.999922,0.012495,-1251.880005,109.931)" style="stroke:#ff0000;stroke-width:0.05mm;fill:none" d="M144.603622,774.562744L146.704361,784.718262L146.704361,794.718262L76.704369,794.718262L76.704369,784.718262L78.805099,774.562744L81.742905,775.170471L84.781433,760.481445L81.843628,759.873718L83.944359,749.718262L139.464371,749.718262L141.565094,759.873718L138.627304,760.481445L141.665833,775.170471L144.603622,774.562744z"/>
    <path transform="matrix(-0.012495,0.999922,0.999922,0.012495,-1251.880005,109.931)" style="stroke:#ff0000;stroke-width:0.05mm;fill:none" d="M139.421661,781.599731L135.102188,760.718262L114.204369,760.718262L114.204369,781.599731L139.421661,781.599731z"/>
    <path transform="matrix(-0.012495,0.999922,0.999922,0.012495,-1251.880005,109.931)" style="stroke:#ff0000;stroke-width:0.05mm;fill:none" d="M83.987068,781.599731L88.306549,760.718262L109.204361,760.718262L109.204361,781.599731L83.987068,781.599731z"/>
    <path transform="matrix(-0.012495,0.999922,0.999922,0.012495,-1251.880005,109.931)" style="stroke:#ff0000;stroke-width:0.05mm;fill:none" d="M160.718903,754.868286L151.018906,754.868286L151.018906,757.568237L160.718903,757.568237L160.718903,754.868286z"/>
    <path transform="matrix(-0.012495,0.999922,0.999922,0.012495,-1251.880005,109.931)" style="stroke:#ff0000;stroke-width:0.05mm;fill:none" d="M196.018906,757.568237L205.718903,757.568237L205.718903,754.868286L196.018906,754.868286L196.018906,757.568237z"/>
    <path transform="matrix(-0.012495,0.999922,0.999922,0.012495,-1251.880005,109.931)" style="stroke:#ff0000;stroke-width:0.05mm;fill:none" d="M171.018906,757.568237L185.718903,757.568237L185.718903,754.868286L171.018906,754.868286L171.018906,757.568237z"/>
    <path transform="matrix(-0.012495,0.999922,0.999922,0.012495,-1251.880005,109.931)" style="stroke:#ff0000;stroke-width:0.05mm;fill:none" d="M168.518906,788.868286L168.518906,791.568237L188.218903,791.568237L188.218903,788.868286L168.518906,788.868286z"/>
    <path transform="matrix(-0.012495,0.999922,0.999922,0.012495,-1251.880005,109.931)" style="stroke:#ff0000;stroke-width:0.05mm;fill:none" d="M148.40744,769.266052L145.469635,769.873718L143.368896,759.718262L143.368896,749.718262L213.368896,749.718262L213.368896,759.718262L211.268173,769.873718L208.330368,769.266052L205.29184,783.955078L208.229645,784.562744L206.128906,794.718262L150.608902,794.718262L148.508163,784.562744L151.445969,783.955078L148.40744,769.266052z"/>
    <path transform="matrix(-0.012495,0.999922,0.999922,0.012495,-1251.880005,109.931)" style="stroke:#ff0000;stroke-width:0.05mm;fill:none" d="M150.651611,762.836792L154.971085,783.718262L175.868896,783.718262L175.868896,762.836792L150.651611,762.836792z"/>
    <path transform="matrix(-0.012495,0.999922,0.999922,0.012495,-1251.880005,109.931)" style="stroke:#ff0000;stroke-width:0.05mm;fill:none" d="M206.086197,762.836792L201.766724,783.718262L180.868912,783.718262L180.868912,762.836792L206.086197,762.836792z"/>
    <path transform="matrix(-0.012495,0.999922,0.999922,0.012495,-1251.880005,109.931)" style="stroke:#ff0000;stroke-width:0.05mm;fill:none" d="M262.683441,790.259094L272.383453,790.259094L272.383453,787.559082L262.683441,787.559082L262.683441,790.259094z"/>
    <path transform="matrix(-0.012495,0.999922,0.999922,0.012495,-1251.880005,109.931)" style="stroke:#ff0000;stroke-width:0.05mm;fill:none" d="M227.383438,787.559082L217.683441,787.559082L217.683441,790.259094L227.383438,790.259094L227.383438,787.559082z"/>
    <path transform="matrix(-0.012495,0.999922,0.999922,0.012495,-1251.880005,109.931)" style="stroke:#ff0000;stroke-width:0.05mm;fill:none" d="M252.383438,787.559082L237.683441,787.559082L237.683441,790.259094L252.383438,790.259094L252.383438,787.559082z"/>
    <path transform="matrix(-0.012495,0.999922,0.999922,0.012495,-1251.880005,109.931)" style="stroke:#ff0000;stroke-width:0.05mm;fill:none" d="M254.883438,756.259094L254.883438,753.559082L235.183441,753.559082L235.183441,756.259094L254.883438,756.259094z"/>
    <path transform="matrix(-0.012495,0.999922,0.999922,0.012495,-1251.880005,109.931)" style="stroke:#ff0000;stroke-width:0.05mm;fill:none" d="M212.134171,775.253601L210.033447,785.409058L210.033447,795.409058L280.033447,795.409058L280.033447,785.409058L277.932709,775.253601L274.994904,775.861328L271.95636,761.172302L274.894165,760.564575L272.793427,750.409058L217.273438,750.409058L215.172699,760.564575L218.110504,761.172302L215.071976,775.861328L212.134171,775.253601z"/>
    <path transform="matrix(-0.012495,0.999922,0.999922,0.012495,-1251.880005,109.931)" style="stroke:#ff0000;stroke-width:0.05mm;fill:none" d="M272.750732,782.290527L268.431274,761.409058L247.533447,761.409058L247.533447,782.290527L272.750732,782.290527z"/>
    <path transform="matrix(-0.012495,0.999922,0.999922,0.012495,-1251.880005,109.931)" style="stroke:#ff0000;stroke-width:0.05mm;fill:none" d="M217.316147,782.290527L221.63562,761.409058L242.533447,761.409058L242.533447,782.290527L217.316147,782.290527z"/>
    <path transform="matrix(-0.012495,0.999922,0.999922,0.012495,-1251.880005,109.931)" style="stroke:#ff0000;stroke-width:0.05mm;fill:none" d="M314.690765,763.444946L314.690765,784.444946L335.588593,784.444946L339.932587,763.444946L314.690765,763.444946z"/>
    <path transform="matrix(-0.012495,0.999922,0.999922,0.012495,-1251.880005,109.931)" style="stroke:#ff0000;stroke-width:0.05mm;fill:none" d="M288.792938,784.444946L309.690765,784.444946L309.690765,763.444946L284.448944,763.444946L288.792938,784.444946z"/>
    <path transform="matrix(-0.012495,0.999922,0.999922,0.012495,-1251.880005,109.931)" style="stroke:#ff0000;stroke-width:0.05mm;fill:none" d="M319.890747,758.444946L329.490753,758.444946L329.490753,755.444946L339.890778,755.444946L339.890778,758.444946L347.190765,758.444946L347.190765,760.444946L345.710602,767.600403L342.772797,766.992737L339.734253,781.681702L342.672058,782.289429L341.191895,789.444946L335.991913,789.444946L335.991913,787.444946L329.991913,787.444946L329.991913,789.444946L319.890747,789.444946L319.890747,792.444946L304.490753,792.444946L304.490753,789.444946L294.389618,789.444946L294.389618,787.444946L288.389618,787.444946L288.389618,789.444946L283.189606,789.444946L281.709442,782.289429L284.647247,781.681702L281.608734,766.992737L278.670929,767.600403L277.190765,760.444946L277.190765,758.444946L284.490753,758.444946L284.490753,755.444946L294.890747,755.444946L294.890747,758.444946L304.490753,758.444946L304.490753,755.444946L319.890747,755.444946L319.890747,758.444946z"/>
    <path transform="matrix(-0.012495,0.999922,0.999922,0.012495,-1251.880005,109.931)" style="stroke:#ff0000;stroke-width:0.05mm;fill:none" d="M376.406708,784.086182L376.406708,763.086182L355.508911,763.086182L351.164917,784.086182L376.406708,784.086182z"/>
    <path transform="matrix(-0.012495,0.999922,0.999922,0.012495,-1251.880005,109.931)" style="stroke:#ff0000;stroke-width:0.05mm;fill:none" d="M402.304535,763.086182L381.406738,763.086182L381.406738,784.086182L406.648529,784.086182L402.304535,763.086182z"/>
    <path transform="matrix(-0.012495,0.999922,0.999922,0.012495,-1251.880005,109.931)" style="stroke:#ff0000;stroke-width:0.05mm;fill:none" d="M349.905579,758.086182L355.105591,758.086182L355.105591,760.086182L361.105591,760.086182L361.105591,758.086182L371.206726,758.086182L371.206726,755.086182L386.60672,755.086182L386.60672,758.086182L396.707855,758.086182L396.707855,760.086182L402.707855,760.086182L402.707855,758.086182L407.907867,758.086182L409.388031,765.241699L406.450226,765.849365L409.488739,780.538391L412.426544,779.930725L413.906708,787.086182L413.906708,789.086182L406.60672,789.086182L406.60672,792.086182L396.206726,792.086182L396.206726,789.086182L386.60672,789.086182L386.60672,792.086182L371.206726,792.086182L371.206726,789.086182L361.60672,789.086182L361.60672,792.086182L351.206726,792.086182L351.206726,789.086182L343.906708,789.086182L343.906708,787.086182L345.386871,779.930725L348.324707,780.538391L351.36322,765.849365L348.425415,765.241699L349.905579,758.086182z"/>
    <path transform="matrix(-0.012495,0.999922,0.999922,0.012495,-1251.880005,109.931)" style="stroke:#ff0000;stroke-width:0.05mm;fill:none" d="M52.397804,707.007813L52.397804,722.007813L55.3978,722.007813L55.3978,707.007813L52.397804,707.007813z"/>
    <path transform="matrix(-0.012495,0.999922,0.999922,0.012495,-1251.880005,109.931)" style="stroke:#ff0000;stroke-width:0.05mm;fill:none" d="M52.397804,732.007813L52.397804,742.007813L55.3978,742.007813L55.3978,732.007813L52.397804,732.007813z"/>
    <path transform="matrix(-0.012495,0.999922,0.999922,0.012495,-1251.880005,109.931)" style="stroke:#ff0000;stroke-width:0.05mm;fill:none" d="M55.3978,697.007813L55.3978,687.007813L52.397804,687.007813L52.397804,697.007813L55.3978,697.007813z"/>
    <path transform="matrix(-0.012495,0.999922,0.999922,0.012495,-1251.880005,109.931)" style="stroke:#ff0000;stroke-width:0.05mm;fill:none" d="M97.897804,687.007813L94.897804,687.007813L94.897804,682.507813L12.897801,682.507813L12.897801,687.007813L9.897801,687.007813L9.897801,697.007813L12.897801,697.007813L12.897801,707.007813L9.897801,707.007813L9.897801,722.007813L12.897801,722.007813L12.897801,732.007813L9.897801,732.007813L9.897801,742.007813L12.897801,742.007813L12.897801,746.507813L94.897804,746.507813L94.897804,742.007813L97.897804,742.007813L97.897804,732.007813L94.897804,732.007813L94.897804,722.007813L97.897804,722.007813L97.897804,707.007813L94.897804,707.007813L94.897804,697.007813L97.897804,697.007813L97.897804,687.007813z"/>
    <path transform="matrix(-0.012495,0.999922,0.999922,0.012495,-1251.880005,109.931)" style="stroke:#ff0000;stroke-width:0.05mm;fill:none" d="M142.677429,707.45697L142.677429,722.45697L145.677414,722.45697L145.677414,707.45697L142.677429,707.45697z"/>
    <path transform="matrix(-0.012495,0.999922,0.999922,0.012495,-1251.880005,109.931)" style="stroke:#ff0000;stroke-width:0.05mm;fill:none" d="M142.677429,732.45697L142.677429,742.45697L145.677414,742.45697L145.677414,732.45697L142.677429,732.45697z"/>
    <path transform="matrix(-0.012495,0.999922,0.999922,0.012495,-1251.880005,109.931)" style="stroke:#ff0000;stroke-width:0.05mm;fill:none" d="M145.677414,697.45697L145.677414,687.45697L142.677429,687.45697L142.677429,697.45697L145.677414,697.45697z"/>
    <path transform="matrix(-0.012495,0.999922,0.999922,0.012495,-1251.880005,109.931)" style="stroke:#ff0000;stroke-width:0.05mm;fill:none" d="M188.177414,687.45697L185.177429,687.45697L185.177429,682.95697L103.177422,682.95697L103.177422,687.45697L100.177422,687.45697L100.177422,697.45697L103.177422,697.45697L103.177422,707.45697L100.177422,707.45697L100.177422,722.45697L103.177422,722.45697L103.177422,732.45697L100.177422,732.45697L100.177422,742.45697L103.177422,742.45697L103.177422,746.95697L185.177429,746.95697L185.177429,742.45697L188.177414,742.45697L188.177414,732.45697L185.177429,732.45697L185.177429,722.45697L188.177414,722.45697L188.177414,707.45697L185.177429,707.45697L185.177429,697.45697L188.177414,697.45697L188.177414,687.45697z"/>
    <path transform="matrix(-0.012495,0.999922,0.999922,0.012495,-1251.880005,109.931)" style="stroke:#ff0000;stroke-width:0.05mm;fill:none" d="M190.860107,697.639282L193.860107,697.639282L193.860107,707.639282L190.860107,707.639282L190.860107,722.639282L193.860107,722.639282L193.860107,732.639282L190.860107,732.639282L190.860107,742.639282L193.860107,742.639282L193.860107,747.139282L218.860107,747.139282L218.860107,742.639282L221.860107,742.639282L221.860107,732.639282L218.860107,732.639282L218.860107,722.639282L221.860107,722.639282L221.860107,707.639282L218.860107,707.639282L218.860107,697.639282L221.860107,697.639282L221.860107,687.639282L218.860107,687.639282L218.860107,683.139282L193.860107,683.139282L193.860107,687.639282L190.860107,687.639282L190.860107,697.639282z"/>
    <path transform="matrix(-0.012495,0.999922,0.999922,0.012495,-1251.880005,109.931)" style="stroke:#ff0000;stroke-width:0.05mm;fill:none" d="M330.036285,803.908691L330.036285,825.577637L328.46521,827.148682L316.607361,827.148682L315.036285,825.577637L315.036285,803.908691L330.036285,803.908691z"/>
    <path transform="matrix(-0.012495,0.999922,0.999922,0.012495,-1251.880005,109.931)" style="stroke:#ff0000;stroke-width:0.05mm;fill:none" d="M346.036285,825.577637L347.607361,827.148682L375.2052,827.148682L375.536285,826.817627L375.536285,803.908691L346.036285,803.908691L346.036285,825.577637z"/>
    <path transform="matrix(-0.012495,0.999922,0.999922,0.012495,-1251.880005,109.931)" style="stroke:#ff0000;stroke-width:0.05mm;fill:none" d="M388.536285,826.817627L388.86734,827.148682L416.46521,827.148682L418.036285,825.577637L418.036285,803.908691L388.536285,803.908691L388.536285,826.817627z"/>
    <path transform="matrix(-0.012495,0.999922,0.999922,0.012495,-1251.880005,109.931)" style="stroke:#ff0000;stroke-width:0.05mm;fill:none" d="M299.036285,803.908691L299.036285,825.577637L297.46521,827.148682L269.86734,827.148682L269.536285,826.817627L269.536285,803.908691L299.036285,803.908691z"/>
    <path transform="matrix(-0.012495,0.999922,0.999922,0.012495,-1251.880005,109.931)" style="stroke:#ff0000;stroke-width:0.05mm;fill:none" d="M256.536285,803.908691L256.536285,826.817627L256.2052,827.148682L228.607346,827.148682L227.036285,825.577637L227.036285,803.908691L256.536285,803.908691z"/>
    <path transform="matrix(-0.012495,0.999922,0.999922,0.012495,-1251.880005,109.931)" style="stroke:#ff0000;stroke-width:0.05mm;fill:none" d="M222.036285,809.398682L222.036285,798.908691L261.536285,798.908691L261.536285,798.916748L261.736267,798.916748L261.736267,806.588684L264.336273,806.588684L264.336273,798.916748L264.536285,798.916748L264.536285,798.908691L304.286285,798.908691L304.286285,809.648682L309.786285,809.648682L309.786285,798.908691L335.286285,798.908691L335.286285,809.648682L340.786285,809.648682L340.786285,798.908691L380.536285,798.908691L380.536285,798.916748L380.736267,798.916748L380.736267,806.588684L383.336273,806.588684L383.336273,798.916748L383.536285,798.916748L383.536285,798.908691L423.036285,798.908691L423.036285,809.398682L426.036285,809.398682L426.036285,824.898682L423.036285,824.898682L423.036285,829.148682L421.536285,829.148682L418.536285,832.148682L386.796295,832.148682L383.536285,828.888672L383.336273,828.888672L383.336273,821.588684L380.736267,821.588684L380.736267,828.888672L380.536285,828.888672L377.276276,832.148682L345.536285,832.148682L342.536285,829.148682L340.786285,829.148682L340.786285,824.648682L335.286285,824.648682L335.286285,829.148682L333.536285,829.148682L330.536285,832.148682L314.536285,832.148682L311.536285,829.148682L309.786285,829.148682L309.786285,824.648682L304.286285,824.648682L304.286285,829.148682L302.536285,829.148682L299.536285,832.148682L267.796295,832.148682L264.536285,828.888672L264.336273,828.888672L264.336273,821.588684L261.736267,821.588684L261.736267,828.888672L261.536285,828.888672L258.276276,832.148682L226.536285,832.148682L223.536285,829.148682L222.036285,829.148682L222.036285,824.898682L219.036285,824.898682L219.036285,809.398682L222.036285,809.398682z"/>
    <path transform="matrix(-0.012495,0.999922,0.999922,0.012495,-1251.880005,109.931)" style="stroke:#ff0000;stroke-width:0.05mm;fill:none" d="M231.844238,720.773071C232.52356,721.343079,232.915878,722.184448,232.915878,723.071228L232.915878,741.882385C232.915878,742.769165,232.52356,743.610535,231.844238,744.180542L227.915878,747.476807L227.915878,742.476807L224.915878,742.476807L224.915878,722.476807L227.915878,722.476807L227.915878,717.476807L231.844238,720.773132"/>
    <path transform="matrix(-0.012495,0.999922,0.999922,0.012495,-1251.880005,109.931)" style="stroke:#ff0000;stroke-width:0.05mm;fill:none" d="M232.301392,688.692505C232.980713,689.262512,233.373032,690.103882,233.373032,690.990662L233.373032,709.801819C233.373032,710.688599,232.980713,711.529968,232.301392,712.099976L228.373032,715.39624L228.373032,710.39624L225.373032,710.39624L225.373032,690.39624L228.373032,690.39624L228.373032,685.39624L232.301392,688.692566"/>
    <path transform="matrix(-0.012495,0.999922,0.999922,0.012495,-1251.880005,109.931)" style="stroke:#ff0000;stroke-width:0.05mm;fill:none" d="M243.315216,744.748108C243.994537,744.178101,244.386856,743.336731,244.386856,742.449951L244.386856,723.638794C244.386856,722.752014,243.994537,721.910645,243.315216,721.340637L239.386856,718.044373L239.386856,723.044373L236.386856,723.044373L236.386856,743.044373L239.386856,743.044373L239.386856,748.044373L243.315216,744.748047"/>
    <path transform="matrix(-0.012495,0.999922,0.999922,0.012495,-1251.880005,109.931)" style="stroke:#ff0000;stroke-width:0.05mm;fill:none" d="M243.708557,688.692505C244.387878,689.262512,244.780197,690.103882,244.780197,690.990662L244.780197,709.801819C244.780197,710.688599,244.387878,711.529968,243.708557,712.099976L239.780197,715.39624L239.780197,710.39624L236.780197,710.39624L236.780197,690.39624L239.780197,690.39624L239.780197,685.39624L243.708557,688.692566"/>
    <path transform="matrix(-0.012495,0.999922,0.999922,0.012495,-1251.880005,109.931)" style="stroke:#ff0000;stroke-width:0.05mm;fill:none" d="M254.722382,720.553894C255.401703,721.123901,255.794022,721.965271,255.794022,722.852051L255.794022,741.663208C255.794022,742.549988,255.401703,743.391357,254.722382,743.961365L250.794022,747.257629L250.794022,742.257629L247.794022,742.257629L247.794022,722.257629L250.794022,722.257629L250.794022,717.257629L254.722382,720.553955"/>
    <path transform="matrix(-0.012495,0.999922,0.999922,0.012495,-1251.880005,109.931)" style="stroke:#ff0000;stroke-width:0.05mm;fill:none" d="M254.722382,688.692505C255.401703,689.262512,255.794022,690.103882,255.794022,690.990662L255.794022,709.801819C255.794022,710.688599,255.401703,711.529968,254.722382,712.099976L250.794022,715.39624L250.794022,710.39624L247.794022,710.39624L247.794022,690.39624L250.794022,690.39624L250.794022,685.39624L254.722382,688.692566"/>
    <path transform="matrix(-0.012495,0.999922,0.999922,0.012495,-1251.880005,109.931)" style="stroke:#ff0000;stroke-width:0.05mm;fill:none" d="M268.636017,744.583252C269.315308,744.013245,269.707642,743.171875,269.707642,742.285095L269.707642,723.473938C269.707642,722.587158,269.315308,721.745789,268.635986,721.175781L265.350433,718.418884C264.978668,718.106934,264.436615,718.106934,264.06485,718.418884L260.779266,721.175781C260.099976,721.745789,259.707642,722.587158,259.707642,723.473938L259.707642,742.285095C259.707642,743.171875,260.099976,744.013245,260.779266,744.583252L264.06485,747.340149C264.436615,747.6521,264.978668,747.6521,265.350433,747.340149L268.635986,744.583191"/>
    <path transform="matrix(-0.012495,0.999922,0.999922,0.012495,-1251.880005,109.931)" style="stroke:#ff0000;stroke-width:0.05mm;fill:none" d="M263.207642,740.379517L266.207642,740.379517L266.207642,725.379517L263.207642,725.379517L263.207642,740.379517z"/>
    <path transform="matrix(-0.012495,0.999922,0.999922,0.012495,-1251.880005,109.931)" style="stroke:#ff0000;stroke-width:0.05mm;fill:none" d="M263.88443,684.825439C264.256195,684.513489,264.798248,684.513489,265.170013,684.825439L268.455597,687.582336C269.134888,688.152344,269.527222,688.993713,269.527222,689.880493L269.527222,708.69165C269.527222,709.57843,269.134888,710.4198,268.455597,710.989807L265.170013,713.746704C264.798248,714.058655,264.256195,714.058655,263.88446,713.746704L260.598846,710.989807C259.919556,710.4198,259.527222,709.57843,259.527222,708.69165L259.527222,689.880493C259.527222,688.993713,259.919556,688.152344,260.598846,687.582336L263.88443,684.825439z"/>
    <path transform="matrix(-0.012495,0.999922,0.999922,0.012495,-1251.880005,109.931)" style="stroke:#ff0000;stroke-width:0.05mm;fill:none" d="M263.027222,706.786072L266.027222,706.786072L266.027222,691.786072L263.027222,691.786072L263.027222,706.786072z"/>
    <path transform="matrix(-0.012495,0.999922,0.999922,0.012495,-1251.880005,109.931)" style="stroke:#ff0000;stroke-width:0.05mm;fill:none" d="M302.956207,705.4729L297.456207,705.4729L297.456207,707.4729L302.956207,707.4729L302.956207,705.4729z"/>
    <path transform="matrix(-0.012495,0.999922,0.999922,0.012495,-1251.880005,109.931)" style="stroke:#ff0000;stroke-width:0.05mm;fill:none" d="M283.956207,738.9729L289.456207,738.9729L289.456207,736.9729L283.956207,736.9729L283.956207,738.9729z"/>
    <path transform="matrix(-0.012495,0.999922,0.999922,0.012495,-1251.880005,109.931)" style="stroke:#ff0000;stroke-width:0.05mm;fill:none" d="M283.956207,708.9729L289.456207,708.9729L289.456207,710.9729L283.956207,710.9729L283.956207,708.9729z"/>
    <path transform="matrix(-0.012495,0.999922,0.999922,0.012495,-1251.880005,109.931)" style="stroke:#ff0000;stroke-width:0.05mm;fill:none" d="M283.956207,715.9729L289.456207,715.9729L289.456207,717.9729L283.956207,717.9729L283.956207,715.9729z"/>
    <path transform="matrix(-0.012495,0.999922,0.999922,0.012495,-1251.880005,109.931)" style="stroke:#ff0000;stroke-width:0.05mm;fill:none" d="M283.956207,722.9729L289.456207,722.9729L289.456207,724.9729L283.956207,724.9729L283.956207,722.9729z"/>
    <path transform="matrix(-0.012495,0.999922,0.999922,0.012495,-1251.880005,109.931)" style="stroke:#ff0000;stroke-width:0.05mm;fill:none" d="M283.956207,729.9729L289.456207,729.9729L289.456207,731.9729L283.956207,731.9729L283.956207,729.9729z"/>
    <path transform="matrix(-0.012495,0.999922,0.999922,0.012495,-1251.880005,109.931)" style="stroke:#ff0000;stroke-width:0.05mm;fill:none" d="M297.456207,735.4729L297.456207,733.4729L302.956207,733.4729L302.956207,735.4729L297.456207,735.4729z"/>
    <path transform="matrix(-0.012495,0.999922,0.999922,0.012495,-1251.880005,109.931)" style="stroke:#ff0000;stroke-width:0.05mm;fill:none" d="M302.956207,728.4729L297.456207,728.4729L297.456207,726.4729L302.956207,726.4729L302.956207,728.4729z"/>
    <path transform="matrix(-0.012495,0.999922,0.999922,0.012495,-1251.880005,109.931)" style="stroke:#ff0000;stroke-width:0.05mm;fill:none" d="M302.956207,721.4729L297.456207,721.4729L297.456207,719.4729L302.956207,719.4729L302.956207,721.4729z"/>
    <path transform="matrix(-0.012495,0.999922,0.999922,0.012495,-1251.880005,109.931)" style="stroke:#ff0000;stroke-width:0.05mm;fill:none" d="M302.956207,714.4729L297.456207,714.4729L297.456207,712.4729L302.956207,712.4729L302.956207,714.4729z"/>
    <path transform="matrix(-0.012495,0.999922,0.999922,0.012495,-1251.880005,109.931)" style="stroke:#ff0000;stroke-width:0.05mm;fill:none" d="M272.956207,697.4729L272.956207,746.99292L313.956207,746.99292L313.956207,697.4729L272.956207,697.4729z"/>
    <path transform="matrix(-0.012495,0.999922,0.999922,0.012495,-1251.880005,109.931)" style="stroke:#ff0000;stroke-width:0.05mm;fill:none" d="M347.112549,705.598755L341.612549,705.598755L341.612549,707.598755L347.112549,707.598755L347.112549,705.598755z"/>
    <path transform="matrix(-0.012495,0.999922,0.999922,0.012495,-1251.880005,109.931)" style="stroke:#ff0000;stroke-width:0.05mm;fill:none" d="M328.112549,739.098755L333.612549,739.098755L333.612549,737.098755L328.112549,737.098755L328.112549,739.098755z"/>
    <path transform="matrix(-0.012495,0.999922,0.999922,0.012495,-1251.880005,109.931)" style="stroke:#ff0000;stroke-width:0.05mm;fill:none" d="M328.112549,709.098755L333.612549,709.098755L333.612549,711.098755L328.112549,711.098755L328.112549,709.098755z"/>
    <path transform="matrix(-0.012495,0.999922,0.999922,0.012495,-1251.880005,109.931)" style="stroke:#ff0000;stroke-width:0.05mm;fill:none" d="M328.112549,716.098755L333.612549,716.098755L333.612549,718.098755L328.112549,718.098755L328.112549,716.098755z"/>
    <path transform="matrix(-0.012495,0.999922,0.999922,0.012495,-1251.880005,109.931)" style="stroke:#ff0000;stroke-width:0.05mm;fill:none" d="M328.112549,723.098755L333.612549,723.098755L333.612549,725.098755L328.112549,725.098755L328.112549,723.098755z"/>
    <path transform="matrix(-0.012495,0.999922,0.999922,0.012495,-1251.880005,109.931)" style="stroke:#ff0000;stroke-width:0.05mm;fill:none" d="M328.112549,730.098755L333.612549,730.098755L333.612549,732.098755L328.112549,732.098755L328.112549,730.098755z"/>
    <path transform="matrix(-0.012495,0.999922,0.999922,0.012495,-1251.880005,109.931)" style="stroke:#ff0000;stroke-width:0.05mm;fill:none" d="M341.612549,735.598755L341.612549,733.598755L347.112549,733.598755L347.112549,735.598755L341.612549,735.598755z"/>
    <path transform="matrix(-0.012495,0.999922,0.999922,0.012495,-1251.880005,109.931)" style="stroke:#ff0000;stroke-width:0.05mm;fill:none" d="M347.112549,728.598755L341.612549,728.598755L341.612549,726.598755L347.112549,726.598755L347.112549,728.598755z"/>
    <path transform="matrix(-0.012495,0.999922,0.999922,0.012495,-1251.880005,109.931)" style="stroke:#ff0000;stroke-width:0.05mm;fill:none" d="M347.112549,721.598755L341.612549,721.598755L341.612549,719.598755L347.112549,719.598755L347.112549,721.598755z"/>
    <path transform="matrix(-0.012495,0.999922,0.999922,0.012495,-1251.880005,109.931)" style="stroke:#ff0000;stroke-width:0.05mm;fill:none" d="M347.112549,714.598755L341.612549,714.598755L341.612549,712.598755L347.112549,712.598755L347.112549,714.598755z"/>
    <path transform="matrix(-0.012495,0.999922,0.999922,0.012495,-1251.880005,109.931)" style="stroke:#ff0000;stroke-width:0.05mm;fill:none" d="M317.112549,697.598755L317.112549,747.118713L358.112549,747.118713L358.112549,697.598755L317.112549,697.598755z"/>
    <path transform="matrix(-0.012495,0.999922,0.999922,0.012495,-1251.880005,109.931)" style="stroke:#ff0000;stroke-width:0.05mm;fill:none" d="M21.788275,655.558838L27.288275,655.558838L27.288275,653.558838L21.788275,653.558838L21.788275,655.558838z"/>
    <path transform="matrix(-0.012495,0.999922,0.999922,0.012495,-1251.880005,109.931)" style="stroke:#ff0000;stroke-width:0.05mm;fill:none" d="M37.038277,629.798828L37.038277,679.318848L12.038276,679.318848L12.038276,629.798828L37.038277,629.798828z"/>
    <path transform="matrix(-0.012495,0.999922,0.999922,0.012495,-1251.880005,109.931)" style="stroke:#ff0000;stroke-width:0.05mm;fill:none" d="M70.995331,637.230713L72.995331,637.230713L72.995331,641.230713L63.995331,641.230713L63.995331,636.230713L70.995331,636.230713L70.995331,637.230713z"/>
    <path transform="matrix(-0.012495,0.999922,0.999922,0.012495,-1251.880005,109.931)" style="stroke:#ff0000;stroke-width:0.05mm;fill:none" d="M70.995331,658.230713L72.995331,658.230713L72.995331,662.230713L63.995331,662.230713L63.995331,657.230713L70.995331,657.230713L70.995331,658.230713z"/>
    <path transform="matrix(-0.012495,0.999922,0.999922,0.012495,-1251.880005,109.931)" style="stroke:#ff0000;stroke-width:0.05mm;fill:none" d="M57.495331,672.730713L57.495331,667.730713L48.495331,667.730713L48.495331,671.730713L50.495331,671.730713L50.495331,672.730713L57.495331,672.730713z"/>
    <path transform="matrix(-0.012495,0.999922,0.999922,0.012495,-1251.880005,109.931)" style="stroke:#ff0000;stroke-width:0.05mm;fill:none" d="M50.495331,658.730713L50.495331,657.730713L48.495331,657.730713L48.495331,653.730713L57.495331,653.730713L57.495331,658.730713L50.495331,658.730713z"/>
    <path transform="matrix(-0.012495,0.999922,0.999922,0.012495,-1251.880005,109.931)" style="stroke:#ff0000;stroke-width:0.05mm;fill:none" d="M57.495331,644.730713L57.495331,639.730713L48.495331,639.730713L48.495331,643.730713L50.495331,643.730713L50.495331,644.730713L57.495331,644.730713z"/>
    <path transform="matrix(-0.012495,0.999922,0.999922,0.012495,-1251.880005,109.931)" style="stroke:#ff0000;stroke-width:0.05mm;fill:none" d="M70.995331,644.230713L72.995331,644.230713L72.995331,648.230713L63.995331,648.230713L63.995331,643.230713L70.995331,643.230713L70.995331,644.230713z"/>
    <path transform="matrix(-0.012495,0.999922,0.999922,0.012495,-1251.880005,109.931)" style="stroke:#ff0000;stroke-width:0.05mm;fill:none" d="M57.495331,651.730713L57.495331,646.730713L48.495331,646.730713L48.495331,650.730713L50.495331,650.730713L50.495331,651.730713L57.495331,651.730713z"/>
    <path transform="matrix(-0.012495,0.999922,0.999922,0.012495,-1251.880005,109.931)" style="stroke:#ff0000;stroke-width:0.05mm;fill:none" d="M57.495331,665.730713L57.495331,660.730713L48.495331,660.730713L48.495331,664.730713L50.495331,664.730713L50.495331,665.730713L57.495331,665.730713z"/>
    <path transform="matrix(-0.012495,0.999922,0.999922,0.012495,-1251.880005,109.931)" style="stroke:#ff0000;stroke-width:0.05mm;fill:none" d="M70.995331,665.230713L72.995331,665.230713L72.995331,669.230713L63.995331,669.230713L63.995331,664.230713L70.995331,664.230713L70.995331,665.230713z"/>
    <path transform="matrix(-0.012495,0.999922,0.999922,0.012495,-1251.880005,109.931)" style="stroke:#ff0000;stroke-width:0.05mm;fill:none" d="M70.995331,651.230713L72.995331,651.230713L72.995331,655.230713L63.995331,655.230713L63.995331,650.230713L70.995331,650.230713L70.995331,651.230713z"/>
    <path transform="matrix(-0.012495,0.999922,0.999922,0.012495,-1251.880005,109.931)" style="stroke:#ff0000;stroke-width:0.05mm;fill:none" d="M40.245331,639.490723L45.245331,643.686218L45.245331,665.295227L40.245331,669.490723L40.245331,679.250671L81.245331,679.250671L81.245331,669.490723L76.245331,665.295227L76.245331,643.686218L81.245331,639.490723L81.245331,629.730713L40.245331,629.730713L40.245331,639.490723z"/>
    <path transform="matrix(-0.012495,0.999922,0.999922,0.012495,-1251.880005,109.931)" style="stroke:#ff0000;stroke-width:0.05mm;fill:none" d="M115.18084,637.235718L117.180847,637.235718L117.180847,641.235779L108.180847,641.235779L108.180847,636.235718L115.18084,636.235718L115.18084,637.235718z"/>
    <path transform="matrix(-0.012495,0.999922,0.999922,0.012495,-1251.880005,109.931)" style="stroke:#ff0000;stroke-width:0.05mm;fill:none" d="M115.18084,658.235779L117.180847,658.235779L117.180847,662.235718L108.180847,662.235718L108.180847,657.235718L115.18084,657.235718L115.18084,658.235779z"/>
    <path transform="matrix(-0.012495,0.999922,0.999922,0.012495,-1251.880005,109.931)" style="stroke:#ff0000;stroke-width:0.05mm;fill:none" d="M101.68084,672.735718L101.68084,667.735718L92.68084,667.735718L92.68084,671.735718L94.68084,671.735718L94.68084,672.735718L101.68084,672.735718z"/>
    <path transform="matrix(-0.012495,0.999922,0.999922,0.012495,-1251.880005,109.931)" style="stroke:#ff0000;stroke-width:0.05mm;fill:none" d="M94.68084,658.735718L94.68084,657.735779L92.68084,657.735779L92.68084,653.735718L101.68084,653.735718L101.68084,658.735718L94.68084,658.735718z"/>
    <path transform="matrix(-0.012495,0.999922,0.999922,0.012495,-1251.880005,109.931)" style="stroke:#ff0000;stroke-width:0.05mm;fill:none" d="M101.68084,644.735718L101.68084,639.735718L92.68084,639.735718L92.68084,643.735718L94.68084,643.735718L94.68084,644.735718L101.68084,644.735718z"/>
    <path transform="matrix(-0.012495,0.999922,0.999922,0.012495,-1251.880005,109.931)" style="stroke:#ff0000;stroke-width:0.05mm;fill:none" d="M115.18084,644.235718L117.180847,644.235718L117.180847,648.235718L108.180847,648.235718L108.180847,643.235718L115.18084,643.235718L115.18084,644.235718z"/>
    <path transform="matrix(-0.012495,0.999922,0.999922,0.012495,-1251.880005,109.931)" style="stroke:#ff0000;stroke-width:0.05mm;fill:none" d="M101.68084,651.735718L101.68084,646.735718L92.68084,646.735718L92.68084,650.735718L94.68084,650.735718L94.68084,651.735718L101.68084,651.735718z"/>
    <path transform="matrix(-0.012495,0.999922,0.999922,0.012495,-1251.880005,109.931)" style="stroke:#ff0000;stroke-width:0.05mm;fill:none" d="M101.68084,665.735779L101.68084,660.735718L92.68084,660.735718L92.68084,664.735718L94.68084,664.735718L94.68084,665.735779L101.68084,665.735779z"/>
    <path transform="matrix(-0.012495,0.999922,0.999922,0.012495,-1251.880005,109.931)" style="stroke:#ff0000;stroke-width:0.05mm;fill:none" d="M115.18084,665.235718L117.180847,665.235718L117.180847,669.235779L108.180847,669.235779L108.180847,664.235718L115.18084,664.235718L115.18084,665.235718z"/>
    <path transform="matrix(-0.012495,0.999922,0.999922,0.012495,-1251.880005,109.931)" style="stroke:#ff0000;stroke-width:0.05mm;fill:none" d="M115.18084,651.235718L117.180847,651.235718L117.180847,655.235718L108.180847,655.235718L108.180847,650.235718L115.18084,650.235718L115.18084,651.235718z"/>
    <path transform="matrix(-0.012495,0.999922,0.999922,0.012495,-1251.880005,109.931)" style="stroke:#ff0000;stroke-width:0.05mm;fill:none" d="M84.430847,639.495728L89.430847,643.691223L89.430847,665.300232L84.430847,669.495728L84.430847,679.255737L125.430847,679.255737L125.430847,669.495728L120.430847,665.300232L120.430847,643.691223L125.430847,639.495728L125.430847,629.735779L84.430847,629.735779L84.430847,639.495728z"/>
    <path transform="matrix(-0.012495,0.999922,0.999922,0.012495,-1251.880005,109.931)" style="stroke:#ff0000;stroke-width:0.05mm;fill:none" d="M220.529938,655.947266L237.529938,655.947266L237.529938,653.947266L220.529938,653.947266L220.529938,655.947266z"/>
    <path transform="matrix(-0.012495,0.999922,0.999922,0.012495,-1251.880005,109.931)" style="stroke:#ff0000;stroke-width:0.05mm;fill:none" d="M241.529938,630.187256L241.529938,679.707275L216.529938,679.707275L216.529938,630.187256L241.529938,630.187256z"/>
    <path transform="matrix(-0.012495,0.999922,0.999922,0.012495,-1251.880005,109.931)" style="stroke:#ff0000;stroke-width:0.05mm;fill:none" d="M260.617279,652.628113L253.617279,652.628113L253.617279,657.628113L262.617279,657.628113L262.617279,653.628113L260.617279,653.628113L260.617279,652.628113z"/>
    <path transform="matrix(-0.012495,0.999922,0.999922,0.012495,-1251.880005,109.931)" style="stroke:#ff0000;stroke-width:0.05mm;fill:none" d="M269.617279,679.888123L269.617279,670.128113L264.617279,665.932617L264.617279,644.323608L269.617279,640.128113L269.617279,630.368103L244.617279,630.368103L244.617279,640.128113L249.617279,644.323608L249.617279,665.932617L244.617279,670.128113L244.617279,679.888123L269.617279,679.888123z"/>
    <path transform="matrix(-0.012495,0.999922,0.999922,0.012495,-1251.880005,109.931)" style="stroke:#ff0000;stroke-width:0.05mm;fill:none" d="M273.647125,630.889343L273.647125,680.409363L314.647125,680.409363L314.647125,630.889343L273.647125,630.889343z"/>
    <path transform="matrix(-0.012495,0.999922,0.999922,0.012495,-1251.880005,109.931)" style="stroke:#ff0000;stroke-width:0.05mm;fill:none" d="M277.647125,638.889343L310.647125,638.889343L310.647125,640.889343L309.147125,640.889343L309.147125,642.391541L310.647125,642.391541L310.647125,644.391541L309.147125,644.391541L309.147125,645.893799L310.647125,645.893799L310.647125,647.893799L309.147125,647.893799L309.147125,649.395996L310.647125,649.395996L310.647125,651.395996L309.147125,651.395996L309.147125,652.898254L310.647125,652.898254L310.647125,654.898254L309.147125,654.898254L309.147125,656.400452L310.647125,656.400452L310.647125,658.400452L309.147125,658.400452L309.147125,659.902649L310.647125,659.902649L310.647125,661.902649L309.147125,661.902649L309.147125,663.404907L310.647125,663.404907L310.647125,665.404907L309.147125,665.404907L309.147125,666.907104L310.647125,666.907104L310.647125,668.907104L309.147125,668.907104L309.147125,670.409363L310.647125,670.409363L310.647125,672.409363L277.647125,672.409363L277.647125,670.409363L279.147125,670.409363L279.147125,668.907104L277.647125,668.907104L277.647125,666.907104L279.147125,666.907104L279.147125,665.404907L277.647125,665.404907L277.647125,663.404907L279.147125,663.404907L279.147125,661.902649L277.647125,661.902649L277.647125,659.902649L279.147125,659.902649L279.147125,658.400452L277.647125,658.400452L277.647125,656.400452L279.147125,656.400452L279.147125,654.898254L277.647125,654.898254L277.647125,652.898254L279.147125,652.898254L279.147125,651.395996L277.647125,651.395996L277.647125,649.395996L279.147125,649.395996L279.147125,647.893799L277.647125,647.893799L277.647125,645.893799L279.147125,645.893799L279.147125,644.391541L277.647125,644.391541L277.647125,642.391541L279.147125,642.391541L279.147125,640.889343L277.647125,640.889343L277.647125,638.889343z"/>
    <path transform="matrix(-0.012495,0.999922,0.999922,0.012495,-1251.880005,109.931)" style="stroke:#ff0000;stroke-width:0.05mm;fill:none" d="M317.489014,631.151794L317.489014,680.671814L358.489014,680.671814L358.489014,631.151794L317.489014,631.151794z"/>
    <path transform="matrix(-0.012495,0.999922,0.999922,0.012495,-1251.880005,109.931)" style="stroke:#ff0000;stroke-width:0.05mm;fill:none" d="M321.489014,639.151794L354.489014,639.151794L354.489014,641.151794L352.989014,641.151794L352.989014,642.654053L354.489014,642.654053L354.489014,644.654053L352.989014,644.654053L352.989014,646.15625L354.489014,646.15625L354.489014,648.15625L352.989014,648.15625L352.989014,649.658508L354.489014,649.658508L354.489014,651.658508L352.989014,651.658508L352.989014,653.160706L354.489014,653.160706L354.489014,655.160706L352.989014,655.160706L352.989014,656.662903L354.489014,656.662903L354.489014,658.662903L352.989014,658.662903L352.989014,660.165161L354.489014,660.165161L354.489014,662.165161L352.989014,662.165161L352.989014,663.667358L354.489014,663.667358L354.489014,665.667358L352.989014,665.667358L352.989014,667.169617L354.489014,667.169617L354.489014,669.169617L352.989014,669.169617L352.989014,670.671814L354.489014,670.671814L354.489014,672.671814L321.489014,672.671814L321.489014,670.671814L322.989014,670.671814L322.989014,669.169617L321.489014,669.169617L321.489014,667.169617L322.989014,667.169617L322.989014,665.667358L321.489014,665.667358L321.489014,663.667358L322.989014,663.667358L322.989014,662.165161L321.489014,662.165161L321.489014,660.165161L322.989014,660.165161L322.989014,658.662903L321.489014,658.662903L321.489014,656.662903L322.989014,656.662903L322.989014,655.160706L321.489014,655.160706L321.489014,653.160706L322.989014,653.160706L322.989014,651.658508L321.489014,651.658508L321.489014,649.658508L322.989014,649.658508L322.989014,648.15625L321.489014,648.15625L321.489014,646.15625L322.989014,646.15625L322.989014,644.654053L321.489014,644.654053L321.489014,642.654053L322.989014,642.654053L322.989014,641.151794L321.489014,641.151794L321.489014,639.151794z"/>
    <path transform="matrix(-0.012495,0.999922,0.999922,0.012495,-1251.880005,109.931)" style="stroke:#ff0000;stroke-width:0.05mm;fill:none" d="M12.45884,623.209473L53.458839,623.209473L53.458839,573.689453L12.45884,573.689453L12.45884,623.209473z"/>
    <path transform="matrix(-0.012495,0.999922,0.999922,0.012495,-1251.880005,109.931)" style="stroke:#ff0000;stroke-width:0.05mm;fill:none" d="M47.958839,613.209473L47.958839,615.209473L17.958841,615.209473L17.958841,613.209473L19.458841,613.209473L19.458841,611.707214L17.958841,611.707214L17.958841,609.707214L19.458841,609.707214L19.458841,608.205017L17.958841,608.205017L17.958841,606.205017L19.458841,606.205017L19.458841,604.70282L17.958841,604.70282L17.958841,602.70282L19.458841,602.70282L19.458841,601.200562L17.958841,601.200562L17.958841,599.200562L19.458841,599.200562L19.458841,597.698364L17.958841,597.698364L17.958841,595.698364L19.458841,595.698364L19.458841,594.196106L17.958841,594.196106L17.958841,592.196106L19.458841,592.196106L19.458841,590.693909L17.958841,590.693909L17.958841,588.693909L19.458841,588.693909L19.458841,587.19165L17.958841,587.19165L17.958841,585.19165L19.458841,585.19165L19.458841,583.689453L17.958841,583.689453L17.958841,581.689453L47.958839,581.689453L47.958839,583.689453L46.458839,583.689453L46.458839,585.19165L47.958839,585.19165L47.958839,587.19165L46.458839,587.19165L46.458839,588.693909L47.958839,588.693909L47.958839,590.693909L46.458839,590.693909L46.458839,592.196106L47.958839,592.196106L47.958839,594.196106L46.458839,594.196106L46.458839,595.698364L47.958839,595.698364L47.958839,597.698364L46.458839,597.698364L46.458839,599.200562L47.958839,599.200562L47.958839,601.200562L46.458839,601.200562L46.458839,602.70282L47.958839,602.70282L47.958839,604.70282L46.458839,604.70282L46.458839,606.205017L47.958839,606.205017L47.958839,608.205017L46.458839,608.205017L46.458839,609.707214L47.958839,609.707214L47.958839,611.707214L46.458839,611.707214L46.458839,613.209473L47.958839,613.209473z"/>
    <path transform="matrix(-0.012495,0.999922,0.999922,0.012495,-1251.880005,109.931)" style="stroke:#ff0000;stroke-width:0.05mm;fill:none" d="M57.217846,623.125061L98.21785,623.125061L98.21785,573.605042L57.217846,573.605042L57.217846,623.125061z"/>
    <path transform="matrix(-0.012495,0.999922,0.999922,0.012495,-1251.880005,109.931)" style="stroke:#ff0000;stroke-width:0.05mm;fill:none" d="M92.71785,613.125061L92.71785,615.125061L62.71785,615.125061L62.71785,613.125061L64.21785,613.125061L64.21785,611.622803L62.71785,611.622803L62.71785,609.622803L64.21785,609.622803L64.21785,608.120605L62.71785,608.120605L62.71785,606.120605L64.21785,606.120605L64.21785,604.618408L62.71785,604.618408L62.71785,602.618408L64.21785,602.618408L64.21785,601.11615L62.71785,601.11615L62.71785,599.11615L64.21785,599.11615L64.21785,597.613953L62.71785,597.613953L62.71785,595.613953L64.21785,595.613953L64.21785,594.111694L62.71785,594.111694L62.71785,592.111694L64.21785,592.111694L64.21785,590.609497L62.71785,590.609497L62.71785,588.609497L64.21785,588.609497L64.21785,587.107239L62.71785,587.107239L62.71785,585.107239L64.21785,585.107239L64.21785,583.605042L62.71785,583.605042L62.71785,581.605042L92.71785,581.605042L92.71785,583.605042L91.21785,583.605042L91.21785,585.107239L92.71785,585.107239L92.71785,587.107239L91.21785,587.107239L91.21785,588.609497L92.71785,588.609497L92.71785,590.609497L91.21785,590.609497L91.21785,592.111694L92.71785,592.111694L92.71785,594.111694L91.21785,594.111694L91.21785,595.613953L92.71785,595.613953L92.71785,597.613953L91.21785,597.613953L91.21785,599.11615L92.71785,599.11615L92.71785,601.11615L91.21785,601.11615L91.21785,602.618408L92.71785,602.618408L92.71785,604.618408L91.21785,604.618408L91.21785,606.120605L92.71785,606.120605L92.71785,608.120605L91.21785,608.120605L91.21785,609.622803L92.71785,609.622803L92.71785,611.622803L91.21785,611.622803L91.21785,613.125061L92.71785,613.125061z"/>
    <path transform="matrix(-0.012495,0.999922,0.999922,0.012495,-1251.880005,109.931)" style="stroke:#ff0000;stroke-width:0.05mm;fill:none" d="M191.688553,624.418823L232.688553,624.418823L232.688553,574.898804L191.688553,574.898804L191.688553,624.418823z"/>
    <path transform="matrix(-0.012495,0.999922,0.999922,0.012495,-1251.880005,109.931)" style="stroke:#ff0000;stroke-width:0.05mm;fill:none" d="M237.328766,624.478149L278.328766,624.478149L278.328766,574.958191L237.328766,574.958191L237.328766,624.478149z"/>
    <path transform="matrix(-0.012495,0.999922,0.999922,0.012495,-1251.880005,109.931)" style="stroke:#ff0000;stroke-width:0.05mm;fill:none" d="M283.107574,624.478149L324.107574,624.478149L324.107574,574.958191L283.107574,574.958191L283.107574,624.478149z"/>
    <path transform="matrix(-0.012495,0.999922,0.999922,0.012495,-1251.880005,109.931)" style="stroke:#ff0000;stroke-width:0.05mm;fill:none" d="M329.298798,624.890625L370.298798,624.890625L370.298798,575.370605L329.298798,575.370605L329.298798,624.890625z"/>
    <path transform="matrix(-0.012495,0.999922,0.999922,0.012495,-1251.880005,109.931)" style="stroke:#ff0000;stroke-width:0.05mm;fill:none" d="M397.782043,575.240723L397.782043,624.760742L372.782043,624.760742L372.782043,575.240723L397.782043,575.240723z"/>
    <path transform="matrix(-0.012495,0.999922,0.999922,0.012495,-1251.880005,109.931)" style="stroke:#ff0000;stroke-width:0.05mm;fill:none" d="M406.53952,601.163391L420.53952,601.163391L420.53952,599.163391L406.53952,599.163391L406.53952,601.163391z"/>
    <path transform="matrix(-0.012495,0.999922,0.999922,0.012495,-1251.880005,109.931)" style="stroke:#ff0000;stroke-width:0.05mm;fill:none" d="M426.03952,575.403381L426.03952,624.923401L401.03952,624.923401L401.03952,575.403381L426.03952,575.403381z"/>
    <path transform="matrix(-0.012495,0.999922,0.999922,0.012495,-1251.880005,109.931)" style="stroke:#ff0000;stroke-width:0.05mm;fill:none" d="M158.305389,658.200928L160.305389,658.200928L160.305389,662.200928L151.305389,662.200928L151.305389,657.200928L158.305389,657.200928L158.305389,658.200928z"/>
    <path transform="matrix(-0.012495,0.999922,0.999922,0.012495,-1251.880005,109.931)" style="stroke:#ff0000;stroke-width:0.05mm;fill:none" d="M137.805389,658.700928L137.805389,657.700928L135.805389,657.700928L135.805389,653.700928L144.805389,653.700928L144.805389,658.700928L137.805389,658.700928z"/>
    <path transform="matrix(-0.012495,0.999922,0.999922,0.012495,-1251.880005,109.931)" style="stroke:#ff0000;stroke-width:0.05mm;fill:none" d="M158.305389,651.200928L160.305389,651.200928L160.305389,655.200928L151.305389,655.200928L151.305389,650.200928L158.305389,650.200928L158.305389,651.200928z"/>
    <path transform="matrix(-0.012495,0.999922,0.999922,0.012495,-1251.880005,109.931)" style="stroke:#ff0000;stroke-width:0.05mm;fill:none" d="M127.555397,639.460938L132.555389,643.656433L132.555389,665.265442L127.555397,669.460938L127.555397,679.220886L168.555389,679.220886L168.555389,669.460938L163.555389,665.265442L163.555389,643.656433L168.555389,639.460938L168.555389,629.700928L127.555397,629.700928L127.555397,639.460938z"/>
    <path transform="matrix(-0.012495,0.999922,0.999922,0.012495,-1251.880005,109.931)" style="stroke:#ff0000;stroke-width:0.05mm;fill:none" d="M201.875519,658.200928L203.875519,658.200928L203.875519,662.200928L194.875519,662.200928L194.875519,657.200928L201.875519,657.200928L201.875519,658.200928z"/>
    <path transform="matrix(-0.012495,0.999922,0.999922,0.012495,-1251.880005,109.931)" style="stroke:#ff0000;stroke-width:0.05mm;fill:none" d="M181.375519,658.700928L181.375519,657.700928L179.375519,657.700928L179.375519,653.700928L188.375519,653.700928L188.375519,658.700928L181.375519,658.700928z"/>
    <path transform="matrix(-0.012495,0.999922,0.999922,0.012495,-1251.880005,109.931)" style="stroke:#ff0000;stroke-width:0.05mm;fill:none" d="M201.875519,644.200928L203.875519,644.200928L203.875519,648.200928L194.875519,648.200928L194.875519,643.200928L201.875519,643.200928L201.875519,644.200928z"/>
    <path transform="matrix(-0.012495,0.999922,0.999922,0.012495,-1251.880005,109.931)" style="stroke:#ff0000;stroke-width:0.05mm;fill:none" d="M188.375519,651.700928L188.375519,646.700928L179.375519,646.700928L179.375519,650.700928L181.375519,650.700928L181.375519,651.700928L188.375519,651.700928z"/>
    <path transform="matrix(-0.012495,0.999922,0.999922,0.012495,-1251.880005,109.931)" style="stroke:#ff0000;stroke-width:0.05mm;fill:none" d="M188.375519,665.700928L188.375519,660.700928L179.375519,660.700928L179.375519,664.700928L181.375519,664.700928L181.375519,665.700928L188.375519,665.700928z"/>
    <path transform="matrix(-0.012495,0.999922,0.999922,0.012495,-1251.880005,109.931)" style="stroke:#ff0000;stroke-width:0.05mm;fill:none" d="M201.875519,651.200928L203.875519,651.200928L203.875519,655.200928L194.875519,655.200928L194.875519,650.200928L201.875519,650.200928L201.875519,651.200928z"/>
    <path transform="matrix(-0.012495,0.999922,0.999922,0.012495,-1251.880005,109.931)" style="stroke:#ff0000;stroke-width:0.05mm;fill:none" d="M171.125519,639.460938L176.125519,643.656433L176.125519,665.265442L171.125519,669.460938L171.125519,679.220886L212.125519,679.220886L212.125519,669.460938L207.125519,665.265442L207.125519,643.656433L212.125519,639.460938L212.125519,629.700928L171.125519,629.700928L171.125519,639.460938z"/>
    <path transform="matrix(-0.012495,0.999922,0.999922,0.012495,-1251.880005,109.931)" style="stroke:#ff0000;stroke-width:0.05mm;fill:none" d="M371.873993,716.234131L377.373993,716.234131L377.373993,718.234131L371.873993,718.234131L371.873993,716.234131z"/>
    <path transform="matrix(-0.012495,0.999922,0.999922,0.012495,-1251.880005,109.931)" style="stroke:#ff0000;stroke-width:0.05mm;fill:none" d="M371.873993,723.234131L377.373993,723.234131L377.373993,725.234131L371.873993,725.234131L371.873993,723.234131z"/>
    <path transform="matrix(-0.012495,0.999922,0.999922,0.012495,-1251.880005,109.931)" style="stroke:#ff0000;stroke-width:0.05mm;fill:none" d="M377.373993,730.234131L377.373993,732.234131L371.873993,732.234131L371.873993,730.234131L377.373993,730.234131z"/>
    <path transform="matrix(-0.012495,0.999922,0.999922,0.012495,-1251.880005,109.931)" style="stroke:#ff0000;stroke-width:0.05mm;fill:none" d="M390.873993,728.734131L385.373993,728.734131L385.373993,726.734131L390.873993,726.734131L390.873993,728.734131z"/>
    <path transform="matrix(-0.012495,0.999922,0.999922,0.012495,-1251.880005,109.931)" style="stroke:#ff0000;stroke-width:0.05mm;fill:none" d="M390.873993,721.734131L385.373993,721.734131L385.373993,719.734131L390.873993,719.734131L390.873993,721.734131z"/>
    <path transform="matrix(-0.012495,0.999922,0.999922,0.012495,-1251.880005,109.931)" style="stroke:#ff0000;stroke-width:0.05mm;fill:none" d="M390.873993,714.734131L385.373993,714.734131L385.373993,712.734131L390.873993,712.734131L390.873993,714.734131z"/>
    <path transform="matrix(-0.012495,0.999922,0.999922,0.012495,-1251.880005,109.931)" style="stroke:#ff0000;stroke-width:0.05mm;fill:none" d="M360.873993,697.734131L360.873993,747.254089L401.873993,747.254089L401.873993,697.734131L360.873993,697.734131z"/>
    <path transform="matrix(-0.012495,0.999922,0.999922,0.012495,-1251.880005,109.931)" style="stroke:#ff0000;stroke-width:0.05mm;fill:none" d="M421.775238,716.234131L421.775238,718.234131L416.275238,718.234131L416.275238,716.234131L421.775238,716.234131z"/>
    <path transform="matrix(-0.012495,0.999922,0.999922,0.012495,-1251.880005,109.931)" style="stroke:#ff0000;stroke-width:0.05mm;fill:none" d="M416.275238,723.234131L421.775238,723.234131L421.775238,725.234131L416.275238,725.234131L416.275238,723.234131z"/>
    <path transform="matrix(-0.012495,0.999922,0.999922,0.012495,-1251.880005,109.931)" style="stroke:#ff0000;stroke-width:0.05mm;fill:none" d="M435.275238,721.734131L429.775238,721.734131L429.775238,719.734131L435.275238,719.734131L435.275238,721.734131z"/>
    <path transform="matrix(-0.012495,0.999922,0.999922,0.012495,-1251.880005,109.931)" style="stroke:#ff0000;stroke-width:0.05mm;fill:none" d="M405.275238,697.734131L405.275238,747.254089L446.275238,747.254089L446.275238,697.734131L405.275238,697.734131z"/>
    <path transform="matrix(-0.012495,0.999922,0.999922,0.012495,-1251.880005,109.931)" style="stroke:#ff0000;stroke-width:0.05mm;fill:none" d="M362.058014,630.836243L362.058014,680.356201L403.058014,680.356201L403.058014,630.836243L362.058014,630.836243z"/>
    <path transform="matrix(-0.012495,0.999922,0.999922,0.012495,-1251.880005,109.931)" style="stroke:#ff0000;stroke-width:0.05mm;fill:none" d="M399.058014,649.342896L399.058014,651.342896L397.558014,651.342896L397.558014,652.845093L399.058014,652.845093L399.058014,654.845093L397.558014,654.845093L397.558014,656.347351L399.058014,656.347351L399.058014,658.347351L366.058014,658.347351L366.058014,656.347351L367.558014,656.347351L367.558014,654.845093L366.058014,654.845093L366.058014,652.845093L367.558014,652.845093L367.558014,651.342896L366.058014,651.342896L366.058014,649.342896L399.058014,649.342896z"/>
    <path transform="matrix(-0.012495,0.999922,0.999922,0.012495,-1251.880005,109.931)" style="stroke:#ff0000;stroke-width:0.05mm;fill:none" d="M407.0513,630.836243L407.0513,680.356201L448.0513,680.356201L448.0513,630.836243L407.0513,630.836243z"/>
    <path transform="matrix(-0.012495,0.999922,0.999922,0.012495,-1251.880005,109.931)" style="stroke:#ff0000;stroke-width:0.05mm;fill:none" d="M444.0513,645.840637L444.0513,647.840637L442.5513,647.840637L442.5513,649.342896L444.0513,649.342896L444.0513,651.342896L442.5513,651.342896L442.5513,652.845093L444.0513,652.845093L444.0513,654.845093L442.5513,654.845093L442.5513,656.347351L444.0513,656.347351L444.0513,658.347351L442.5513,658.347351L442.5513,659.849548L444.0513,659.849548L444.0513,661.849548L442.5513,661.849548L442.5513,663.351746L444.0513,663.351746L444.0513,665.351746L411.0513,665.351746L411.0513,663.351746L412.5513,663.351746L412.5513,661.849548L411.0513,661.849548L411.0513,659.849548L412.5513,659.849548L412.5513,658.347351L411.0513,658.347351L411.0513,656.347351L412.5513,656.347351L412.5513,654.845093L411.0513,654.845093L411.0513,652.845093L412.5513,652.845093L412.5513,651.342896L411.0513,651.342896L411.0513,649.342896L412.5513,649.342896L412.5513,647.840637L411.0513,647.840637L411.0513,645.840637L444.0513,645.840637z"/>
    <path transform="matrix(-0.012495,0.999922,0.999922,0.012495,-1251.880005,109.931)" style="stroke:#ff0000;stroke-width:0.05mm;fill:none" d="M147.155945,624.114624L188.155945,624.114624L188.155945,574.594604L147.155945,574.594604L147.155945,624.114624z"/>
    <path transform="matrix(-0.012495,0.999922,0.999922,0.012495,-1251.880005,109.931)" style="stroke:#ff0000;stroke-width:0.05mm;fill:none" d="M181.155945,591.59906L181.155945,593.101318L182.655945,593.101318L182.655945,595.101318L181.155945,595.101318L181.155945,596.603516L182.655945,596.603516L182.655945,598.603516L181.155945,598.603516L181.155945,600.105713L182.655945,600.105713L182.655945,602.105713L181.155945,602.105713L181.155945,603.607971L182.655945,603.607971L182.655945,605.607971L181.155945,605.607971L181.155945,607.110168L182.655945,607.110168L182.655945,609.110168L152.655945,609.110168L152.655945,607.110168L154.155945,607.110168L154.155945,605.607971L152.655945,605.607971L152.655945,603.607971L154.155945,603.607971L154.155945,602.105713L152.655945,602.105713L152.655945,600.105713L154.155945,600.105713L154.155945,598.603516L152.655945,598.603516L152.655945,596.603516L154.155945,596.603516L154.155945,595.101318L152.655945,595.101318L152.655945,593.101318L154.155945,593.101318L154.155945,591.59906L152.655945,591.59906L152.655945,589.59906L182.655945,589.59906L182.655945,591.59906L181.155945,591.59906z"/>
    <path transform="matrix(-0.012495,0.999922,0.999922,0.012495,-1251.880005,109.931)" style="stroke:#ff0000;stroke-width:0.05mm;fill:none" d="M102.162682,624.114624L143.162674,624.114624L143.162674,574.594604L102.162682,574.594604L102.162682,624.114624z"/>
    <path transform="matrix(-0.012495,0.999922,0.999922,0.012495,-1251.880005,109.931)" style="stroke:#ff0000;stroke-width:0.05mm;fill:none" d="M109.162682,600.105713L109.162682,598.603516L107.662682,598.603516L107.662682,596.603516L109.162682,596.603516L109.162682,595.101318L107.662682,595.101318L107.662682,593.101318L137.662674,593.101318L137.662674,595.101318L136.162674,595.101318L136.162674,596.603516L137.662674,596.603516L137.662674,598.603516L136.162674,598.603516L136.162674,600.105713L137.662674,600.105713L137.662674,602.105713L107.662682,602.105713L107.662682,600.105713L109.162682,600.105713z"/>
    <path transform="matrix(-0.989932,-0.011581,-0.011581,0.989932,-522.880005,-661.002991)" style="stroke:#ff0000;stroke-width:0.05mm;fill:none" d="M26.571362,754.650574L16.871363,754.650574L16.871363,757.350586L26.571362,757.350586L26.571362,754.650574z"/>
    <path transform="matrix(-0.989932,-0.011581,-0.011581,0.989932,-522.880005,-661.002991)" style="stroke:#ff0000;stroke-width:0.05mm;fill:none" d="M61.871365,757.350586L71.571365,757.350586L71.571365,754.650574L61.871365,754.650574L61.871365,757.350586z"/>
    <path transform="matrix(-0.989932,-0.011581,-0.011581,0.989932,-522.880005,-661.002991)" style="stroke:#ff0000;stroke-width:0.05mm;fill:none" d="M36.871365,757.350586L51.571365,757.350586L51.571365,754.650574L36.871365,754.650574L36.871365,757.350586z"/>
    <path transform="matrix(-0.989932,-0.011581,-0.011581,0.989932,-522.880005,-661.002991)" style="stroke:#ff0000;stroke-width:0.05mm;fill:none" d="M34.371361,788.650574L34.371361,791.350586L54.071362,791.350586L54.071362,788.650574L34.371361,788.650574z"/>
    <path transform="matrix(-0.989932,-0.011581,-0.011581,0.989932,-522.880005,-661.002991)" style="stroke:#ff0000;stroke-width:0.05mm;fill:none" d="M14.259903,769.048401L11.322099,769.656067L9.221363,759.50061L9.221363,749.50061L79.221367,749.50061L79.221367,759.50061L77.120628,769.656067L74.182823,769.048401L71.144295,783.737427L74.0821,784.345093L71.981369,794.50061L16.461363,794.50061L14.360627,784.345093L17.298431,783.737427L14.259903,769.048401z"/>
    <path transform="matrix(-0.989932,-0.011581,-0.011581,0.989932,-522.880005,-661.002991)" style="stroke:#ff0000;stroke-width:0.05mm;fill:none" d="M16.504068,762.619141L20.823545,783.50061L41.721363,783.50061L41.721363,762.619141L16.504068,762.619141z"/>
    <path transform="matrix(-0.989932,-0.011581,-0.011581,0.989932,-522.880005,-661.002991)" style="stroke:#ff0000;stroke-width:0.05mm;fill:none" d="M71.93866,762.619141L67.619179,783.50061L46.721363,783.50061L46.721363,762.619141L71.93866,762.619141z"/>
    <path transform="matrix(-0.989932,-0.011581,-0.011581,0.989932,-522.880005,-661.002991)" style="stroke:#ff0000;stroke-width:0.05mm;fill:none" d="M129.35437,789.568237L139.054367,789.568237L139.054367,786.868286L129.35437,786.868286L129.35437,789.568237z"/>
    <path transform="matrix(-0.989932,-0.011581,-0.011581,0.989932,-522.880005,-661.002991)" style="stroke:#ff0000;stroke-width:0.05mm;fill:none" d="M94.054367,786.868286L84.354362,786.868286L84.354362,789.568237L94.054367,789.568237L94.054367,786.868286z"/>
    <path transform="matrix(-0.989932,-0.011581,-0.011581,0.989932,-522.880005,-661.002991)" style="stroke:#ff0000;stroke-width:0.05mm;fill:none" d="M119.054367,786.868286L104.354362,786.868286L104.354362,789.568237L119.054367,789.568237L119.054367,786.868286z"/>
    <path transform="matrix(-0.989932,-0.011581,-0.011581,0.989932,-522.880005,-661.002991)" style="stroke:#ff0000;stroke-width:0.05mm;fill:none" d="M121.554367,755.568237L121.554367,752.868286L101.854362,752.868286L101.854362,755.568237L121.554367,755.568237z"/>
    <path transform="matrix(-0.989932,-0.011581,-0.011581,0.989932,-522.880005,-661.002991)" style="stroke:#ff0000;stroke-width:0.05mm;fill:none" d="M144.603622,774.562744L146.704361,784.718262L146.704361,794.718262L76.704369,794.718262L76.704369,784.718262L78.805099,774.562744L81.742905,775.170471L84.781433,760.481445L81.843628,759.873718L83.944359,749.718262L139.464371,749.718262L141.565094,759.873718L138.627304,760.481445L141.665833,775.170471L144.603622,774.562744z"/>
    <path transform="matrix(-0.989932,-0.011581,-0.011581,0.989932,-522.880005,-661.002991)" style="stroke:#ff0000;stroke-width:0.05mm;fill:none" d="M139.421661,781.599731L135.102188,760.718262L114.204369,760.718262L114.204369,781.599731L139.421661,781.599731z"/>
    <path transform="matrix(-0.989932,-0.011581,-0.011581,0.989932,-522.880005,-661.002991)" style="stroke:#ff0000;stroke-width:0.05mm;fill:none" d="M83.987068,781.599731L88.306549,760.718262L109.204361,760.718262L109.204361,781.599731L83.987068,781.599731z"/>
</svg>
